<svg width="16" height="16" viewBox="0 0 16 16" fill="none" xmlns="http://www.w3.org/2000/svg">
<path d="M14 4.66667H12.2429C12.0286 3.70833 11.1714 3 10.1429 3C9.11429 3 8.25714 3.70833 8.04286 4.66667H2V5.5H8.04286C8.25714 6.45833 9.11429 7.16667 10.1429 7.16667C11.1714 7.16667 12.0286 6.45833 12.2429 5.5H14V4.66667ZM10.1429 6.33333C9.41429 6.33333 8.85714 5.79167 8.85714 5.08333C8.85714 4.375 9.41429 3.83333 10.1429 3.83333C10.8714 3.83333 11.4286 4.375 11.4286 5.08333C11.4286 5.79167 10.8714 6.33333 10.1429 6.33333ZM2 11.3333H3.75714C3.97143 12.2917 4.82857 13 5.85714 13C6.88571 13 7.74286 12.2917 7.95714 11.3333H14V10.5H7.95714C7.74286 9.54167 6.88571 8.83333 5.85714 8.83333C4.82857 8.83333 3.97143 9.54167 3.75714 10.5H2V11.3333ZM5.85714 9.66667C6.58571 9.66667 7.14286 10.2083 7.14286 10.9167C7.14286 11.625 6.58571 12.1667 5.85714 12.1667C5.12857 12.1667 4.57143 11.625 4.57143 10.9167C4.57143 10.2083 5.12857 9.66667 5.85714 9.66667Z" fill="#464646"/>
</svg>
