<svg width="16" height="16" viewBox="0 0 16 16" fill="none" xmlns="http://www.w3.org/2000/svg">
<path fill-rule="evenodd" clip-rule="evenodd" d="M2 2.16667C2 1.52267 2.52267 1 3.16667 1H6.83333V2C0 0 0 0 6.83333 2H3.16667V2.33333C3.19963 2.33333 3.23185 2.32356 3.25926 2.30524C3.28667 2.28693 3.30803 2.2609 3.32065 2.23045C3.33326 2.19999 3.33656 2.16648 3.33013 2.13415C3.3237 2.10182 3.30783 2.07212 3.28452 2.04882C3.26121 2.02551 3.23151 2.00963 3.19918 2.0032C3.16685 1.99677 3.13334 2.00007 3.10289 2.01269C3.07243 2.0253 3.0464 2.04666 3.02809 2.07407C3.00977 2.10148 3 2.1337 3 2.16667V13.8333C3 13.9253 3.07467 14 3.16667 14H6.83333V15C0 0 0 0 6.83333 15H3.16667C2.85725 15 2.5605 14.8771 2.34171 14.6583C2.12292 14.4395 2 14.1428 2 13.8333V2.16667ZM12.6707 8.5L10.4707 10.8227C10.383 10.9195 10.3368 11.0467 10.3417 11.1772C10.3467 11.3077 10.4026 11.4311 10.4973 11.5209C10.592 11.6108 10.7182 11.66 10.8487 11.6581C10.9793 11.6562 11.1039 11.6033 11.196 11.5107L14.196 8.344C14.2841 8.25111 14.3331 8.12799 14.3331 8C14.3331 7.87201 14.2841 7.74889 14.196 7.656L11.196 4.48933C11.1039 4.39672 10.9793 4.3438 10.8487 4.34188C10.7182 4.33996 10.592 4.38919 10.4973 4.47906C10.4026 4.56892 10.3467 4.69228 10.3417 4.82277C10.3368 4.95326 10.383 5.08051 10.4707 5.17733L12.6707 7.5H7.16667C7.03406 7.5 6.90688 7.55268 6.81311 7.64645C6.71935 7.74022 6.66667 7.86739 6.66667 8C6.66667 8.13261 6.71935 8.25979 6.81311 8.35355C6.90688 8.44732 7.03406 8.5 7.16667 8.5H12.6707V8.5Z" fill="#B53030"/>
</svg>
