<svg width="434" height="284" viewBox="0 0 434 284" fill="none" xmlns="http://www.w3.org/2000/svg">
<rect width="430" height="280" rx="16" fill="white"/>
<line x1="25" y1="51.5" x2="405" y2="51.5" stroke="#F1F1F1"/>
<line x1="25" y1="95.5" x2="405" y2="95.5" stroke="#F1F1F1"/>
<line x1="25" y1="139.5" x2="405" y2="139.5" stroke="#F1F1F1"/>
<line x1="25" y1="183.5" x2="405" y2="183.5" stroke="#F1F1F1"/>
<line x1="25" y1="227.5" x2="405" y2="227.5" stroke="#F1F1F1"/>
<path d="M31.2902 33.404H27.9542L27.4022 35H25.6382L28.6502 26.612H30.6062L33.6182 35H31.8422L31.2902 33.404ZM30.8342 32.06L29.6222 28.556L28.4102 32.06H30.8342ZM37.516 33.452L39.196 28.352H40.984L38.524 35H36.484L34.036 28.352H35.836L37.516 33.452ZM44.4716 35.108C43.9276 35.108 43.4396 35.012 43.0076 34.82C42.5756 34.62 42.2316 34.352 41.9756 34.016C41.7276 33.68 41.5916 33.308 41.5676 32.9H43.2596C43.2916 33.156 43.4156 33.368 43.6316 33.536C43.8556 33.704 44.1316 33.788 44.4596 33.788C44.7796 33.788 45.0276 33.724 45.2036 33.596C45.3876 33.468 45.4796 33.304 45.4796 33.104C45.4796 32.888 45.3676 32.728 45.1436 32.624C44.9276 32.512 44.5796 32.392 44.0996 32.264C43.6036 32.144 43.1956 32.02 42.8756 31.892C42.5636 31.764 42.2916 31.568 42.0596 31.304C41.8356 31.04 41.7236 30.684 41.7236 30.236C41.7236 29.868 41.8276 29.532 42.0356 29.228C42.2516 28.924 42.5556 28.684 42.9476 28.508C43.3476 28.332 43.8156 28.244 44.3516 28.244C45.1436 28.244 45.7756 28.444 46.2476 28.844C46.7196 29.236 46.9796 29.768 47.0276 30.44H45.4196C45.3956 30.176 45.2836 29.968 45.0836 29.816C44.8916 29.656 44.6316 29.576 44.3036 29.576C43.9996 29.576 43.7636 29.632 43.5956 29.744C43.4356 29.856 43.3556 30.012 43.3556 30.212C43.3556 30.436 43.4676 30.608 43.6916 30.728C43.9156 30.84 44.2636 30.956 44.7356 31.076C45.2156 31.196 45.6116 31.32 45.9236 31.448C46.2356 31.576 46.5036 31.776 46.7276 32.048C46.9596 32.312 47.0796 32.664 47.0876 33.104C47.0876 33.488 46.9796 33.832 46.7636 34.136C46.5556 34.44 46.2516 34.68 45.8516 34.856C45.4596 35.024 44.9996 35.108 44.4716 35.108ZM49.3187 27.56C49.0227 27.56 48.7747 27.468 48.5747 27.284C48.3827 27.092 48.2867 26.856 48.2867 26.576C48.2867 26.296 48.3827 26.064 48.5747 25.88C48.7747 25.688 49.0227 25.592 49.3187 25.592C49.6147 25.592 49.8587 25.688 50.0507 25.88C50.2507 26.064 50.3507 26.296 50.3507 26.576C50.3507 26.856 50.2507 27.092 50.0507 27.284C49.8587 27.468 49.6147 27.56 49.3187 27.56ZM50.1467 28.352V35H48.4667V28.352H50.1467ZM55.7425 35L53.4865 32.168V35H51.8065V26.12H53.4865V31.172L55.7185 28.352H57.9025L54.9745 31.688L57.9265 35H55.7425ZM60.7703 29.732V32.948C60.7703 33.172 60.8223 33.336 60.9263 33.44C61.0383 33.536 61.2223 33.584 61.4783 33.584H62.2583V35H61.2023C59.7863 35 59.0783 34.312 59.0783 32.936V29.732H58.2863V28.352H59.0783V26.708H60.7703V28.352H62.2583V29.732H60.7703ZM66.0107 35.108C65.4667 35.108 64.9787 35.012 64.5467 34.82C64.1147 34.62 63.7707 34.352 63.5147 34.016C63.2667 33.68 63.1307 33.308 63.1067 32.9H64.7987C64.8307 33.156 64.9547 33.368 65.1707 33.536C65.3947 33.704 65.6707 33.788 65.9987 33.788C66.3187 33.788 66.5667 33.724 66.7427 33.596C66.9267 33.468 67.0187 33.304 67.0187 33.104C67.0187 32.888 66.9067 32.728 66.6827 32.624C66.4667 32.512 66.1187 32.392 65.6387 32.264C65.1427 32.144 64.7347 32.02 64.4147 31.892C64.1027 31.764 63.8307 31.568 63.5987 31.304C63.3747 31.04 63.2627 30.684 63.2627 30.236C63.2627 29.868 63.3667 29.532 63.5747 29.228C63.7907 28.924 64.0947 28.684 64.4867 28.508C64.8867 28.332 65.3547 28.244 65.8907 28.244C66.6827 28.244 67.3147 28.444 67.7867 28.844C68.2587 29.236 68.5187 29.768 68.5667 30.44H66.9587C66.9347 30.176 66.8227 29.968 66.6227 29.816C66.4307 29.656 66.1707 29.576 65.8427 29.576C65.5387 29.576 65.3027 29.632 65.1347 29.744C64.9747 29.856 64.8947 30.012 64.8947 30.212C64.8947 30.436 65.0067 30.608 65.2307 30.728C65.4547 30.84 65.8027 30.956 66.2747 31.076C66.7547 31.196 67.1507 31.32 67.4627 31.448C67.7747 31.576 68.0427 31.776 68.2667 32.048C68.4987 32.312 68.6187 32.664 68.6267 33.104C68.6267 33.488 68.5187 33.832 68.3027 34.136C68.0947 34.44 67.7907 34.68 67.3907 34.856C66.9987 35.024 66.5387 35.108 66.0107 35.108ZM73.0537 29.732H71.8897V35H70.1857V29.732H69.4297V28.352H70.1857V28.016C70.1857 27.2 70.4177 26.6 70.8817 26.216C71.3457 25.832 72.0457 25.652 72.9817 25.676V27.092C72.5737 27.084 72.2897 27.152 72.1297 27.296C71.9697 27.44 71.8897 27.7 71.8897 28.076V28.352H73.0537V29.732ZM77.0945 35.108C76.4545 35.108 75.8785 34.968 75.3665 34.688C74.8545 34.4 74.4505 33.996 74.1545 33.476C73.8665 32.956 73.7225 32.356 73.7225 31.676C73.7225 30.996 73.8705 30.396 74.1665 29.876C74.4705 29.356 74.8825 28.956 75.4025 28.676C75.9225 28.388 76.5025 28.244 77.1425 28.244C77.7825 28.244 78.3625 28.388 78.8825 28.676C79.4025 28.956 79.8105 29.356 80.1065 29.876C80.4105 30.396 80.5625 30.996 80.5625 31.676C80.5625 32.356 80.4065 32.956 80.0945 33.476C79.7905 33.996 79.3745 34.4 78.8465 34.688C78.3265 34.968 77.7425 35.108 77.0945 35.108ZM77.0945 33.644C77.3985 33.644 77.6825 33.572 77.9465 33.428C78.2185 33.276 78.4345 33.052 78.5945 32.756C78.7545 32.46 78.8345 32.1 78.8345 31.676C78.8345 31.044 78.6665 30.56 78.3305 30.224C78.0025 29.88 77.5985 29.708 77.1185 29.708C76.6385 29.708 76.2345 29.88 75.9065 30.224C75.5865 30.56 75.4265 31.044 75.4265 31.676C75.4265 32.308 75.5825 32.796 75.8945 33.14C76.2145 33.476 76.6145 33.644 77.0945 33.644ZM76.0985 27.476C75.8745 27.476 75.6865 27.4 75.5345 27.248C75.3825 27.096 75.3065 26.908 75.3065 26.684C75.3065 26.46 75.3825 26.272 75.5345 26.12C75.6865 25.96 75.8745 25.88 76.0985 25.88C76.3225 25.88 76.5105 25.96 76.6625 26.12C76.8225 26.272 76.9025 26.46 76.9025 26.684C76.9025 26.908 76.8225 27.096 76.6625 27.248C76.5105 27.4 76.3225 27.476 76.0985 27.476ZM78.3185 27.476C78.0945 27.476 77.9065 27.4 77.7545 27.248C77.6025 27.096 77.5265 26.908 77.5265 26.684C77.5265 26.46 77.6025 26.272 77.7545 26.12C77.9065 25.96 78.0945 25.88 78.3185 25.88C78.5425 25.88 78.7305 25.96 78.8825 26.12C79.0425 26.272 79.1225 26.46 79.1225 26.684C79.1225 26.908 79.0425 27.096 78.8825 27.248C78.7305 27.4 78.5425 27.476 78.3185 27.476ZM83.4748 29.384C83.6908 29.032 83.9708 28.756 84.3148 28.556C84.6668 28.356 85.0668 28.256 85.5148 28.256V30.02H85.0708C84.5428 30.02 84.1428 30.144 83.8708 30.392C83.6068 30.64 83.4748 31.072 83.4748 31.688V35H81.7948V28.352H83.4748V29.384ZM90.5824 35L88.3264 32.168V35H86.6464V26.12H88.3264V31.172L90.5584 28.352H92.7424L89.8144 31.688L92.7664 35H90.5824ZM95.3342 26.12V35H93.6542V26.12H95.3342ZM96.562 31.652C96.562 30.98 96.694 30.384 96.958 29.864C97.23 29.344 97.594 28.944 98.05 28.664C98.514 28.384 99.03 28.244 99.598 28.244C100.094 28.244 100.526 28.344 100.894 28.544C101.27 28.744 101.57 28.996 101.794 29.3V28.352H103.486V35H101.794V34.028C101.578 34.34 101.278 34.6 100.894 34.808C100.518 35.008 100.082 35.108 99.586 35.108C99.026 35.108 98.514 34.964 98.05 34.676C97.594 34.388 97.23 33.984 96.958 33.464C96.694 32.936 96.562 32.332 96.562 31.652ZM101.794 31.676C101.794 31.268 101.714 30.92 101.554 30.632C101.394 30.336 101.178 30.112 100.906 29.96C100.634 29.8 100.342 29.72 100.03 29.72C99.718 29.72 99.43 29.796 99.166 29.948C98.902 30.1 98.686 30.324 98.518 30.62C98.358 30.908 98.278 31.252 98.278 31.652C98.278 32.052 98.358 32.404 98.518 32.708C98.686 33.004 98.902 33.232 99.166 33.392C99.438 33.552 99.726 33.632 100.03 33.632C100.342 33.632 100.634 33.556 100.906 33.404C101.178 33.244 101.394 33.02 101.554 32.732C101.714 32.436 101.794 32.084 101.794 31.676ZM106.807 29.384C107.023 29.032 107.303 28.756 107.647 28.556C107.999 28.356 108.399 28.256 108.847 28.256V30.02H108.403C107.875 30.02 107.475 30.144 107.203 30.392C106.939 30.64 106.807 31.072 106.807 31.688V35H105.127V28.352H106.807V29.384ZM110.83 27.56C110.534 27.56 110.286 27.468 110.086 27.284C109.894 27.092 109.798 26.856 109.798 26.576C109.798 26.296 109.894 26.064 110.086 25.88C110.286 25.688 110.534 25.592 110.83 25.592C111.126 25.592 111.37 25.688 111.562 25.88C111.762 26.064 111.862 26.296 111.862 26.576C111.862 26.856 111.762 27.092 111.562 27.284C111.37 27.468 111.126 27.56 110.83 27.56ZM111.658 28.352V35H109.978V28.352H111.658ZM117.002 28.256C117.794 28.256 118.434 28.508 118.922 29.012C119.41 29.508 119.654 30.204 119.654 31.1V35H117.974V31.328C117.974 30.8 117.842 30.396 117.578 30.116C117.314 29.828 116.954 29.684 116.498 29.684C116.034 29.684 115.666 29.828 115.394 30.116C115.13 30.396 114.998 30.8 114.998 31.328V35H113.318V28.352H114.998V29.18C115.222 28.892 115.506 28.668 115.85 28.508C116.202 28.34 116.586 28.256 117.002 28.256ZM123.856 28.244C124.352 28.244 124.788 28.344 125.164 28.544C125.54 28.736 125.836 28.988 126.052 29.3V28.352H127.744V35.048C127.744 35.664 127.62 36.212 127.372 36.692C127.124 37.18 126.752 37.564 126.256 37.844C125.76 38.132 125.16 38.276 124.456 38.276C123.512 38.276 122.736 38.056 122.128 37.616C121.528 37.176 121.188 36.576 121.108 35.816H122.776C122.864 36.12 123.052 36.36 123.34 36.536C123.636 36.72 123.992 36.812 124.408 36.812C124.896 36.812 125.292 36.664 125.596 36.368C125.9 36.08 126.052 35.64 126.052 35.048V34.016C125.836 34.328 125.536 34.588 125.152 34.796C124.776 35.004 124.344 35.108 123.856 35.108C123.296 35.108 122.784 34.964 122.32 34.676C121.856 34.388 121.488 33.984 121.216 33.464C120.952 32.936 120.82 32.332 120.82 31.652C120.82 30.98 120.952 30.384 121.216 29.864C121.488 29.344 121.852 28.944 122.308 28.664C122.772 28.384 123.288 28.244 123.856 28.244ZM126.052 31.676C126.052 31.268 125.972 30.92 125.812 30.632C125.652 30.336 125.436 30.112 125.164 29.96C124.892 29.8 124.6 29.72 124.288 29.72C123.976 29.72 123.688 29.796 123.424 29.948C123.16 30.1 122.944 30.324 122.776 30.62C122.616 30.908 122.536 31.252 122.536 31.652C122.536 32.052 122.616 32.404 122.776 32.708C122.944 33.004 123.16 33.232 123.424 33.392C123.696 33.552 123.984 33.632 124.288 33.632C124.6 33.632 124.892 33.556 125.164 33.404C125.436 33.244 125.652 33.02 125.812 32.732C125.972 32.436 126.052 32.084 126.052 31.676ZM128.953 31.652C128.953 30.98 129.085 30.384 129.349 29.864C129.621 29.344 129.985 28.944 130.441 28.664C130.905 28.384 131.421 28.244 131.989 28.244C132.485 28.244 132.917 28.344 133.285 28.544C133.661 28.744 133.961 28.996 134.185 29.3V28.352H135.877V35H134.185V34.028C133.969 34.34 133.669 34.6 133.285 34.808C132.909 35.008 132.473 35.108 131.977 35.108C131.417 35.108 130.905 34.964 130.441 34.676C129.985 34.388 129.621 33.984 129.349 33.464C129.085 32.936 128.953 32.332 128.953 31.652ZM134.185 31.676C134.185 31.268 134.105 30.92 133.945 30.632C133.785 30.336 133.569 30.112 133.297 29.96C133.025 29.8 132.733 29.72 132.421 29.72C132.109 29.72 131.821 29.796 131.557 29.948C131.293 30.1 131.077 30.324 130.909 30.62C130.749 30.908 130.669 31.252 130.669 31.652C130.669 32.052 130.749 32.404 130.909 32.708C131.077 33.004 131.293 33.232 131.557 33.392C131.829 33.552 132.117 33.632 132.421 33.632C132.733 33.632 133.025 33.556 133.297 33.404C133.569 33.244 133.785 33.02 133.945 32.732C134.105 32.436 134.185 32.084 134.185 31.676ZM139.197 29.384C139.413 29.032 139.693 28.756 140.037 28.556C140.389 28.356 140.789 28.256 141.237 28.256V30.02H140.793C140.265 30.02 139.865 30.144 139.593 30.392C139.329 30.64 139.197 31.072 139.197 31.688V35H137.517V28.352H139.197V29.384ZM147.1 36.452H145.408V25.304H147.1V36.452ZM156.927 33.404H153.591L153.039 35H151.275L154.287 26.612H156.243L159.255 35H157.479L156.927 33.404ZM156.471 32.06L155.259 28.556L154.047 32.06H156.471ZM164.065 28.256C164.857 28.256 165.497 28.508 165.985 29.012C166.473 29.508 166.717 30.204 166.717 31.1V35H165.037V31.328C165.037 30.8 164.905 30.396 164.641 30.116C164.377 29.828 164.017 29.684 163.561 29.684C163.097 29.684 162.729 29.828 162.457 30.116C162.193 30.396 162.061 30.8 162.061 31.328V35H160.381V28.352H162.061V29.18C162.285 28.892 162.569 28.668 162.913 28.508C163.265 28.34 163.649 28.256 164.065 28.256ZM170.858 35.108C170.314 35.108 169.826 35.012 169.394 34.82C168.962 34.62 168.618 34.352 168.362 34.016C168.114 33.68 167.978 33.308 167.954 32.9H169.646C169.678 33.156 169.802 33.368 170.018 33.536C170.242 33.704 170.518 33.788 170.846 33.788C171.166 33.788 171.414 33.724 171.59 33.596C171.774 33.468 171.866 33.304 171.866 33.104C171.866 32.888 171.754 32.728 171.53 32.624C171.314 32.512 170.966 32.392 170.486 32.264C169.99 32.144 169.582 32.02 169.262 31.892C168.95 31.764 168.678 31.568 168.446 31.304C168.222 31.04 168.11 30.684 168.11 30.236C168.11 29.868 168.214 29.532 168.422 29.228C168.638 28.924 168.942 28.684 169.334 28.508C169.734 28.332 170.202 28.244 170.738 28.244C171.53 28.244 172.162 28.444 172.634 28.844C173.106 29.236 173.366 29.768 173.414 30.44H171.806C171.782 30.176 171.67 29.968 171.47 29.816C171.278 29.656 171.018 29.576 170.69 29.576C170.386 29.576 170.15 29.632 169.982 29.744C169.822 29.856 169.742 30.012 169.742 30.212C169.742 30.436 169.854 30.608 170.078 30.728C170.302 30.84 170.65 30.956 171.122 31.076C171.602 31.196 171.998 31.32 172.31 31.448C172.622 31.576 172.89 31.776 173.114 32.048C173.346 32.312 173.466 32.664 173.474 33.104C173.474 33.488 173.366 33.832 173.15 34.136C172.942 34.44 172.638 34.68 172.238 34.856C171.846 35.024 171.386 35.108 170.858 35.108ZM176.809 29.732V32.948C176.809 33.172 176.861 33.336 176.965 33.44C177.077 33.536 177.261 33.584 177.517 33.584H178.297V35H177.241C175.825 35 175.117 34.312 175.117 32.936V29.732H174.325V28.352H175.117V26.708H176.809V28.352H178.297V29.732H176.809ZM179.074 31.652C179.074 30.98 179.206 30.384 179.47 29.864C179.742 29.344 180.106 28.944 180.562 28.664C181.026 28.384 181.542 28.244 182.11 28.244C182.606 28.244 183.038 28.344 183.406 28.544C183.782 28.744 184.082 28.996 184.306 29.3V28.352H185.998V35H184.306V34.028C184.09 34.34 183.79 34.6 183.406 34.808C183.03 35.008 182.594 35.108 182.098 35.108C181.538 35.108 181.026 34.964 180.562 34.676C180.106 34.388 179.742 33.984 179.47 33.464C179.206 32.936 179.074 32.332 179.074 31.652ZM184.306 31.676C184.306 31.268 184.226 30.92 184.066 30.632C183.906 30.336 183.69 30.112 183.418 29.96C183.146 29.8 182.854 29.72 182.542 29.72C182.23 29.72 181.942 29.796 181.678 29.948C181.414 30.1 181.198 30.324 181.03 30.62C180.87 30.908 180.79 31.252 180.79 31.652C180.79 32.052 180.87 32.404 181.03 32.708C181.198 33.004 181.414 33.232 181.678 33.392C181.95 33.552 182.238 33.632 182.542 33.632C182.854 33.632 183.146 33.556 183.418 33.404C183.69 33.244 183.906 33.02 184.066 32.732C184.226 32.436 184.306 32.084 184.306 31.676ZM181.654 27.56C181.43 27.56 181.242 27.484 181.09 27.332C180.938 27.18 180.862 26.992 180.862 26.768C180.862 26.544 180.938 26.356 181.09 26.204C181.242 26.044 181.43 25.964 181.654 25.964C181.878 25.964 182.066 26.044 182.218 26.204C182.378 26.356 182.458 26.544 182.458 26.768C182.458 26.992 182.378 27.18 182.218 27.332C182.066 27.484 181.878 27.56 181.654 27.56ZM183.874 27.56C183.65 27.56 183.462 27.484 183.31 27.332C183.158 27.18 183.082 26.992 183.082 26.768C183.082 26.544 183.158 26.356 183.31 26.204C183.462 26.044 183.65 25.964 183.874 25.964C184.098 25.964 184.286 26.044 184.438 26.204C184.598 26.356 184.678 26.544 184.678 26.768C184.678 26.992 184.598 27.18 184.438 27.332C184.286 27.484 184.098 27.56 183.874 27.56ZM189.319 26.12V35H187.639V26.12H189.319ZM192.658 26.12V35H190.978V26.12H192.658ZM198.002 28.256C198.794 28.256 199.434 28.508 199.922 29.012C200.41 29.508 200.654 30.204 200.654 31.1V35H198.974V31.328C198.974 30.8 198.842 30.396 198.578 30.116C198.314 29.828 197.954 29.684 197.498 29.684C197.034 29.684 196.666 29.828 196.394 30.116C196.13 30.396 195.998 30.8 195.998 31.328V35H194.318V28.352H195.998V29.18C196.222 28.892 196.506 28.668 196.85 28.508C197.202 28.34 197.586 28.256 198.002 28.256ZM203.104 27.56C202.808 27.56 202.56 27.468 202.36 27.284C202.168 27.092 202.072 26.856 202.072 26.576C202.072 26.296 202.168 26.064 202.36 25.88C202.56 25.688 202.808 25.592 203.104 25.592C203.4 25.592 203.644 25.688 203.836 25.88C204.036 26.064 204.136 26.296 204.136 26.576C204.136 26.856 204.036 27.092 203.836 27.284C203.644 27.468 203.4 27.56 203.104 27.56ZM203.932 28.352V35H202.252V28.352H203.932ZM209.276 28.256C210.068 28.256 210.708 28.508 211.196 29.012C211.684 29.508 211.928 30.204 211.928 31.1V35H210.248V31.328C210.248 30.8 210.116 30.396 209.852 30.116C209.588 29.828 209.228 29.684 208.772 29.684C208.308 29.684 207.94 29.828 207.668 30.116C207.404 30.396 207.272 30.8 207.272 31.328V35H205.592V28.352H207.272V29.18C207.496 28.892 207.78 28.668 208.124 28.508C208.476 28.34 208.86 28.256 209.276 28.256ZM216.129 28.244C216.625 28.244 217.061 28.344 217.437 28.544C217.813 28.736 218.109 28.988 218.325 29.3V28.352H220.017V35.048C220.017 35.664 219.893 36.212 219.645 36.692C219.397 37.18 219.025 37.564 218.529 37.844C218.033 38.132 217.433 38.276 216.729 38.276C215.785 38.276 215.009 38.056 214.401 37.616C213.801 37.176 213.461 36.576 213.381 35.816H215.049C215.137 36.12 215.325 36.36 215.613 36.536C215.909 36.72 216.265 36.812 216.681 36.812C217.169 36.812 217.565 36.664 217.869 36.368C218.173 36.08 218.325 35.64 218.325 35.048V34.016C218.109 34.328 217.809 34.588 217.425 34.796C217.049 35.004 216.617 35.108 216.129 35.108C215.569 35.108 215.057 34.964 214.593 34.676C214.129 34.388 213.761 33.984 213.489 33.464C213.225 32.936 213.093 32.332 213.093 31.652C213.093 30.98 213.225 30.384 213.489 29.864C213.761 29.344 214.125 28.944 214.581 28.664C215.045 28.384 215.561 28.244 216.129 28.244ZM218.325 31.676C218.325 31.268 218.245 30.92 218.085 30.632C217.925 30.336 217.709 30.112 217.437 29.96C217.165 29.8 216.873 29.72 216.561 29.72C216.249 29.72 215.961 29.796 215.697 29.948C215.433 30.1 215.217 30.324 215.049 30.62C214.889 30.908 214.809 31.252 214.809 31.652C214.809 32.052 214.889 32.404 215.049 32.708C215.217 33.004 215.433 33.232 215.697 33.392C215.969 33.552 216.257 33.632 216.561 33.632C216.873 33.632 217.165 33.556 217.437 33.404C217.709 33.244 217.925 33.02 218.085 32.732C218.245 32.436 218.325 32.084 218.325 31.676ZM221.226 31.652C221.226 30.98 221.358 30.384 221.622 29.864C221.894 29.344 222.258 28.944 222.714 28.664C223.178 28.384 223.694 28.244 224.262 28.244C224.758 28.244 225.19 28.344 225.558 28.544C225.934 28.744 226.234 28.996 226.458 29.3V28.352H228.15V35H226.458V34.028C226.242 34.34 225.942 34.6 225.558 34.808C225.182 35.008 224.746 35.108 224.25 35.108C223.69 35.108 223.178 34.964 222.714 34.676C222.258 34.388 221.894 33.984 221.622 33.464C221.358 32.936 221.226 32.332 221.226 31.652ZM226.458 31.676C226.458 31.268 226.378 30.92 226.218 30.632C226.058 30.336 225.842 30.112 225.57 29.96C225.298 29.8 225.006 29.72 224.694 29.72C224.382 29.72 224.094 29.796 223.83 29.948C223.566 30.1 223.35 30.324 223.182 30.62C223.022 30.908 222.942 31.252 222.942 31.652C222.942 32.052 223.022 32.404 223.182 32.708C223.35 33.004 223.566 33.232 223.83 33.392C224.102 33.552 224.39 33.632 224.694 33.632C225.006 33.632 225.298 33.556 225.57 33.404C225.842 33.244 226.058 33.02 226.218 32.732C226.378 32.436 226.458 32.084 226.458 31.676ZM231.471 29.384C231.687 29.032 231.967 28.756 232.311 28.556C232.663 28.356 233.063 28.256 233.511 28.256V30.02H233.067C232.539 30.02 232.139 30.144 231.867 30.392C231.603 30.64 231.471 31.072 231.471 31.688V35H229.791V28.352H231.471V29.384ZM239.374 36.452H237.682V25.304H239.374V36.452ZM245.744 33.668H248.504V35H244.064V26.624H245.744V33.668ZM251.252 26.624V35H249.572V26.624H251.252ZM258.048 33.404H254.712L254.16 35H252.396L255.408 26.612H257.364L260.376 35H258.6L258.048 33.404ZM257.592 32.06L256.38 28.556L255.168 32.06H257.592Z" fill="#464646"/>
<path d="M26.5 224L87 163.5L113 152H160L200 137H272L321.5 120H405.5" stroke="#7586CE" stroke-opacity="0.75" stroke-width="2"/>
<path d="M25 143L56 127.5L127.5 111L194.5 95.5H235.5L274 89.5L314 77L350 70.5H380L403 64" stroke="#978FEC" stroke-opacity="0.75" stroke-width="2"/>
<path d="M25 187.5L89 172.5H129.5L157.5 139L204.5 127H244L283 106.5L328.5 101.5L355.5 90L404 85.5" stroke="#C06FDC" stroke-opacity="0.75" stroke-width="2"/>
<path d="M21.2141 236.02V240.92C21.2141 241.6 21.0174 242.13 20.6241 242.51C20.2308 242.883 19.7041 243.07 19.0441 243.07C18.3774 243.07 17.8374 242.877 17.4241 242.49C17.0174 242.103 16.8141 241.563 16.8141 240.87H18.2141C18.2208 241.17 18.2908 241.403 18.4241 241.57C18.5641 241.737 18.7641 241.82 19.0241 241.82C19.2774 241.82 19.4708 241.74 19.6041 241.58C19.7374 241.42 19.8041 241.2 19.8041 240.92V236.02H21.2141ZM22.4872 240.21C22.4872 239.65 22.5972 239.153 22.8172 238.72C23.0439 238.287 23.3472 237.953 23.7272 237.72C24.1139 237.487 24.5439 237.37 25.0172 237.37C25.4306 237.37 25.7906 237.453 26.0972 237.62C26.4106 237.787 26.6606 237.997 26.8472 238.25V237.46H28.2572V243H26.8472V242.19C26.6672 242.45 26.4172 242.667 26.0972 242.84C25.7839 243.007 25.4206 243.09 25.0072 243.09C24.5406 243.09 24.1139 242.97 23.7272 242.73C23.3472 242.49 23.0439 242.153 22.8172 241.72C22.5972 241.28 22.4872 240.777 22.4872 240.21ZM26.8472 240.23C26.8472 239.89 26.7806 239.6 26.6472 239.36C26.5139 239.113 26.3339 238.927 26.1072 238.8C25.8806 238.667 25.6372 238.6 25.3772 238.6C25.1172 238.6 24.8772 238.663 24.6572 238.79C24.4372 238.917 24.2572 239.103 24.1172 239.35C23.9839 239.59 23.9172 239.877 23.9172 240.21C23.9172 240.543 23.9839 240.837 24.1172 241.09C24.2572 241.337 24.4372 241.527 24.6572 241.66C24.8839 241.793 25.1239 241.86 25.3772 241.86C25.6372 241.86 25.8806 241.797 26.1072 241.67C26.3339 241.537 26.5139 241.35 26.6472 241.11C26.7806 240.863 26.8472 240.57 26.8472 240.23ZM32.6946 237.38C33.3546 237.38 33.8879 237.59 34.2946 238.01C34.7012 238.423 34.9046 239.003 34.9046 239.75V243H33.5046V239.94C33.5046 239.5 33.3946 239.163 33.1746 238.93C32.9546 238.69 32.6546 238.57 32.2746 238.57C31.8879 238.57 31.5812 238.69 31.3546 238.93C31.1346 239.163 31.0246 239.5 31.0246 239.94V243H29.6246V237.46H31.0246V238.15C31.2112 237.91 31.4479 237.723 31.7346 237.59C32.0279 237.45 32.3479 237.38 32.6946 237.38Z" fill="#464646"/>
<path d="M73.374 236.02V237.15H70.464V238.94H72.694V240.05H70.464V243H69.064V236.02H73.374ZM79.5168 240.11C79.5168 240.31 79.5034 240.49 79.4768 240.65H75.4268C75.4601 241.05 75.6001 241.363 75.8468 241.59C76.0934 241.817 76.3968 241.93 76.7568 241.93C77.2768 241.93 77.6468 241.707 77.8668 241.26H79.3768C79.2168 241.793 78.9101 242.233 78.4568 242.58C78.0034 242.92 77.4468 243.09 76.7868 243.09C76.2534 243.09 75.7734 242.973 75.3468 242.74C74.9268 242.5 74.5968 242.163 74.3568 241.73C74.1234 241.297 74.0068 240.797 74.0068 240.23C74.0068 239.657 74.1234 239.153 74.3568 238.72C74.5901 238.287 74.9168 237.953 75.3368 237.72C75.7568 237.487 76.2401 237.37 76.7868 237.37C77.3134 237.37 77.7834 237.483 78.1968 237.71C78.6168 237.937 78.9401 238.26 79.1668 238.68C79.4001 239.093 79.5168 239.57 79.5168 240.11ZM78.0668 239.71C78.0601 239.35 77.9301 239.063 77.6768 238.85C77.4234 238.63 77.1134 238.52 76.7468 238.52C76.4001 238.52 76.1068 238.627 75.8668 238.84C75.6334 239.047 75.4901 239.337 75.4368 239.71H78.0668ZM81.9386 238.27C82.1186 238.003 82.3653 237.787 82.6786 237.62C82.9986 237.453 83.362 237.37 83.7686 237.37C84.242 237.37 84.6686 237.487 85.0486 237.72C85.4353 237.953 85.7386 238.287 85.9586 238.72C86.1853 239.147 86.2986 239.643 86.2986 240.21C86.2986 240.777 86.1853 241.28 85.9586 241.72C85.7386 242.153 85.4353 242.49 85.0486 242.73C84.6686 242.97 84.242 243.09 83.7686 243.09C83.3553 243.09 82.992 243.01 82.6786 242.85C82.372 242.683 82.1253 242.47 81.9386 242.21V243H80.5386V235.6H81.9386V238.27ZM84.8686 240.21C84.8686 239.877 84.7986 239.59 84.6586 239.35C84.5253 239.103 84.3453 238.917 84.1186 238.79C83.8986 238.663 83.6586 238.6 83.3986 238.6C83.1453 238.6 82.9053 238.667 82.6786 238.8C82.4586 238.927 82.2786 239.113 82.1386 239.36C82.0053 239.607 81.9386 239.897 81.9386 240.23C81.9386 240.563 82.0053 240.853 82.1386 241.1C82.2786 241.347 82.4586 241.537 82.6786 241.67C82.9053 241.797 83.1453 241.86 83.3986 241.86C83.6586 241.86 83.8986 241.793 84.1186 241.66C84.3453 241.527 84.5253 241.337 84.6586 241.09C84.7986 240.843 84.8686 240.55 84.8686 240.21Z" fill="#464646"/>
<path d="M127.393 236.02V243H125.993V238.46L124.123 243H123.063L121.183 238.46V243H119.783V236.02H121.373L123.593 241.21L125.813 236.02H127.393ZM128.417 240.21C128.417 239.65 128.527 239.153 128.747 238.72C128.974 238.287 129.277 237.953 129.657 237.72C130.044 237.487 130.474 237.37 130.947 237.37C131.36 237.37 131.72 237.453 132.027 237.62C132.34 237.787 132.59 237.997 132.777 238.25V237.46H134.187V243H132.777V242.19C132.597 242.45 132.347 242.667 132.027 242.84C131.714 243.007 131.35 243.09 130.937 243.09C130.47 243.09 130.044 242.97 129.657 242.73C129.277 242.49 128.974 242.153 128.747 241.72C128.527 241.28 128.417 240.777 128.417 240.21ZM132.777 240.23C132.777 239.89 132.71 239.6 132.577 239.36C132.444 239.113 132.264 238.927 132.037 238.8C131.81 238.667 131.567 238.6 131.307 238.6C131.047 238.6 130.807 238.663 130.587 238.79C130.367 238.917 130.187 239.103 130.047 239.35C129.914 239.59 129.847 239.877 129.847 240.21C129.847 240.543 129.914 240.837 130.047 241.09C130.187 241.337 130.367 241.527 130.587 241.66C130.814 241.793 131.054 241.86 131.307 241.86C131.567 241.86 131.81 241.797 132.037 241.67C132.264 241.537 132.444 241.35 132.577 241.11C132.71 240.863 132.777 240.57 132.777 240.23ZM136.954 238.32C137.134 238.027 137.368 237.797 137.654 237.63C137.948 237.463 138.281 237.38 138.654 237.38V238.85H138.284C137.844 238.85 137.511 238.953 137.284 239.16C137.064 239.367 136.954 239.727 136.954 240.24V243H135.554V237.46H136.954V238.32Z" fill="#464646"/>
<path d="M175.981 241.67H173.201L172.741 243H171.271L173.781 236.01H175.411L177.921 243H176.441L175.981 241.67ZM175.601 240.55L174.591 237.63L173.581 240.55H175.601ZM180.259 238.26C180.439 238.007 180.686 237.797 180.999 237.63C181.319 237.457 181.682 237.37 182.089 237.37C182.562 237.37 182.989 237.487 183.369 237.72C183.756 237.953 184.059 238.287 184.279 238.72C184.506 239.147 184.619 239.643 184.619 240.21C184.619 240.777 184.506 241.28 184.279 241.72C184.059 242.153 183.756 242.49 183.369 242.73C182.989 242.97 182.562 243.09 182.089 243.09C181.682 243.09 181.322 243.007 181.009 242.84C180.702 242.673 180.452 242.463 180.259 242.21V245.64H178.859V237.46H180.259V238.26ZM183.189 240.21C183.189 239.877 183.119 239.59 182.979 239.35C182.846 239.103 182.666 238.917 182.439 238.79C182.219 238.663 181.979 238.6 181.719 238.6C181.466 238.6 181.226 238.667 180.999 238.8C180.779 238.927 180.599 239.113 180.459 239.36C180.326 239.607 180.259 239.897 180.259 240.23C180.259 240.563 180.326 240.853 180.459 241.1C180.599 241.347 180.779 241.537 180.999 241.67C181.226 241.797 181.466 241.86 181.719 241.86C181.979 241.86 182.219 241.793 182.439 241.66C182.666 241.527 182.846 241.337 182.979 241.09C183.119 240.843 183.189 240.55 183.189 240.21ZM187.036 238.32C187.216 238.027 187.45 237.797 187.736 237.63C188.03 237.463 188.363 237.38 188.736 237.38V238.85H188.366C187.926 238.85 187.593 238.953 187.366 239.16C187.146 239.367 187.036 239.727 187.036 240.24V243H185.636V237.46H187.036V238.32Z" fill="#464646"/>
<path d="M229.523 236.02V243H228.123V238.46L226.253 243H225.193L223.313 238.46V243H221.913V236.02H223.503L225.723 241.21L227.943 236.02H229.523ZM230.547 240.21C230.547 239.65 230.657 239.153 230.877 238.72C231.103 238.287 231.407 237.953 231.787 237.72C232.173 237.487 232.603 237.37 233.077 237.37C233.49 237.37 233.85 237.453 234.157 237.62C234.47 237.787 234.72 237.997 234.907 238.25V237.46H236.317V243H234.907V242.19C234.727 242.45 234.477 242.667 234.157 242.84C233.843 243.007 233.48 243.09 233.067 243.09C232.6 243.09 232.173 242.97 231.787 242.73C231.407 242.49 231.103 242.153 230.877 241.72C230.657 241.28 230.547 240.777 230.547 240.21ZM234.907 240.23C234.907 239.89 234.84 239.6 234.707 239.36C234.573 239.113 234.393 238.927 234.167 238.8C233.94 238.667 233.697 238.6 233.437 238.6C233.177 238.6 232.937 238.663 232.717 238.79C232.497 238.917 232.317 239.103 232.177 239.35C232.043 239.59 231.977 239.877 231.977 240.21C231.977 240.543 232.043 240.837 232.177 241.09C232.317 241.337 232.497 241.527 232.717 241.66C232.943 241.793 233.183 241.86 233.437 241.86C233.697 241.86 233.94 241.797 234.167 241.67C234.393 241.537 234.573 241.35 234.707 241.11C234.84 240.863 234.907 240.57 234.907 240.23ZM238.394 236.8C238.141 236.8 237.931 236.723 237.764 236.57C237.604 236.41 237.524 236.213 237.524 235.98C237.524 235.747 237.604 235.553 237.764 235.4C237.931 235.24 238.141 235.16 238.394 235.16C238.641 235.16 238.844 235.24 239.004 235.4C239.164 235.553 239.244 235.747 239.244 235.98C239.244 236.213 239.164 236.41 239.004 236.57C238.844 236.723 238.641 236.8 238.394 236.8ZM239.084 243.91C239.084 244.523 238.931 244.963 238.624 245.23C238.324 245.503 237.891 245.64 237.324 245.64H236.704V244.45H237.104C237.317 244.45 237.467 244.407 237.554 244.32C237.641 244.24 237.684 244.107 237.684 243.92V237.46H239.084V243.91Z" fill="#464646"/>
<path d="M276.906 236.02V240.92C276.906 241.6 276.709 242.13 276.316 242.51C275.922 242.883 275.396 243.07 274.736 243.07C274.069 243.07 273.529 242.877 273.116 242.49C272.709 242.103 272.506 241.563 272.506 240.87H273.906C273.912 241.17 273.982 241.403 274.116 241.57C274.256 241.737 274.456 241.82 274.716 241.82C274.969 241.82 275.162 241.74 275.296 241.58C275.429 241.42 275.496 241.2 275.496 240.92V236.02H276.906ZM283.769 237.46V243H282.359V242.3C282.179 242.54 281.942 242.73 281.649 242.87C281.362 243.003 281.049 243.07 280.709 243.07C280.275 243.07 279.892 242.98 279.559 242.8C279.225 242.613 278.962 242.343 278.769 241.99C278.582 241.63 278.489 241.203 278.489 240.71V237.46H279.889V240.51C279.889 240.95 279.999 241.29 280.219 241.53C280.439 241.763 280.739 241.88 281.119 241.88C281.505 241.88 281.809 241.763 282.029 241.53C282.249 241.29 282.359 240.95 282.359 240.51V237.46H283.769ZM288.22 237.38C288.88 237.38 289.413 237.59 289.82 238.01C290.227 238.423 290.43 239.003 290.43 239.75V243H289.03V239.94C289.03 239.5 288.92 239.163 288.7 238.93C288.48 238.69 288.18 238.57 287.8 238.57C287.413 238.57 287.107 238.69 286.88 238.93C286.66 239.163 286.55 239.5 286.55 239.94V243H285.15V237.46H286.55V238.15C286.737 237.91 286.973 237.723 287.26 237.59C287.553 237.45 287.873 237.38 288.22 237.38ZM292.471 236.8C292.225 236.8 292.018 236.723 291.851 236.57C291.691 236.41 291.611 236.213 291.611 235.98C291.611 235.747 291.691 235.553 291.851 235.4C292.018 235.24 292.225 235.16 292.471 235.16C292.718 235.16 292.921 235.24 293.081 235.4C293.248 235.553 293.331 235.747 293.331 235.98C293.331 236.213 293.248 236.41 293.081 236.57C292.921 236.723 292.718 236.8 292.471 236.8ZM293.161 237.46V243H291.761V237.46H293.161Z" fill="#464646"/>
<g filter="url(#filter0_d_678_2143)">
<rect x="257" y="107" width="156" height="156" rx="16" fill="white"/>
</g>
<path d="M295.448 219.924C294.439 220.748 292.949 220.6 292.168 219.558C283.915 208.532 279.997 194.823 281.219 181.05C282.511 166.492 289.443 153.016 300.536 143.499C311.628 133.982 326.001 129.179 340.587 130.115C355.172 131.051 368.813 137.652 378.598 148.509C388.383 159.365 393.536 173.617 392.956 188.221C392.376 202.825 386.11 216.623 375.496 226.67C364.881 236.717 350.76 242.216 336.146 241.993C322.32 241.783 309.091 236.466 298.979 227.115C298.023 226.231 298.031 224.733 298.955 223.815C299.878 222.897 301.368 222.906 302.328 223.787C311.568 232.266 323.623 237.086 336.218 237.278C349.601 237.482 362.533 232.446 372.254 223.245C381.974 214.044 387.712 201.408 388.243 188.034C388.774 174.66 384.055 161.609 375.095 151.666C366.134 141.724 353.641 135.679 340.285 134.822C326.928 133.965 313.765 138.363 303.607 147.078C293.449 155.794 287.1 168.135 285.917 181.467C284.804 194.014 288.348 206.503 295.825 216.572C296.602 217.618 296.457 219.101 295.448 219.924Z" fill="#7586CE" fill-opacity="0.2"/>
<path d="M287.668 164.933C286.471 164.421 285.08 164.976 284.619 166.194C280.627 176.751 279.912 188.289 282.6 199.289C285.473 211.054 292.084 221.57 301.44 229.26C310.796 236.951 322.392 241.401 334.491 241.944C346.59 242.486 358.538 239.092 368.545 232.27C378.552 225.448 386.077 215.565 389.993 204.105C393.908 192.644 394.003 180.223 390.262 168.705C386.522 157.186 379.148 147.19 369.247 140.216C359.989 133.696 348.988 130.146 337.702 130.004C336.4 129.988 335.375 131.08 335.414 132.382C335.452 133.684 336.539 134.702 337.842 134.723C348.107 134.892 358.107 138.139 366.531 144.072C375.598 150.459 382.351 159.613 385.776 170.161C389.202 180.71 389.115 192.085 385.529 202.58C381.944 213.075 375.052 222.125 365.888 228.373C356.724 234.621 345.782 237.729 334.702 237.232C323.623 236.735 313.003 232.66 304.435 225.617C295.867 218.574 289.813 208.944 287.181 198.17C284.736 188.16 285.367 177.666 288.961 168.048C289.417 166.828 288.866 165.444 287.668 164.933Z" fill="url(#paint0_linear_678_2143)"/>
<path d="M326.17 228.711C325.907 229.748 324.851 230.38 323.826 230.073C312.987 226.834 303.696 219.703 297.767 210.015C291.499 199.776 289.483 187.492 292.148 175.786C294.814 164.08 301.95 153.881 312.034 147.365C322.117 140.849 334.348 138.533 346.116 140.912C357.883 143.291 368.254 150.177 375.014 160.098C381.774 170.019 384.388 182.19 382.297 194.012C380.206 205.834 373.576 216.37 363.823 223.37C354.595 229.993 343.264 232.955 332.018 231.729C330.954 231.613 330.227 230.622 330.387 229.564C330.548 228.506 331.535 227.784 332.599 227.895C342.845 228.972 353.158 226.256 361.564 220.223C370.495 213.812 376.567 204.163 378.482 193.337C380.397 182.511 378.003 171.365 371.813 162.279C365.622 153.194 356.124 146.888 345.348 144.71C334.572 142.531 323.371 144.652 314.137 150.619C304.902 156.586 298.367 165.926 295.926 176.646C293.485 187.366 295.331 198.616 301.071 207.993C306.473 216.818 314.92 223.326 324.78 226.314C325.804 226.625 326.433 227.674 326.17 228.711Z" fill="#7586CE" fill-opacity="0.2"/>
<path d="M292.992 183.795C291.924 183.741 291.01 184.564 291.001 185.634C290.933 194.242 293.282 202.712 297.8 210.07C302.656 217.979 309.791 224.234 318.268 228.013C326.745 231.793 336.167 232.92 345.296 231.246C354.425 229.572 362.834 225.176 369.418 218.635C376.003 212.094 380.455 203.715 382.189 194.597C383.924 185.48 382.86 176.051 379.137 167.549C375.415 159.047 369.207 151.87 361.331 146.961C354.003 142.394 345.55 139.989 336.941 140C335.871 140.001 335.042 140.91 335.088 141.979C335.135 143.047 336.039 143.872 337.109 143.874C344.936 143.895 352.617 146.096 359.281 150.249C366.495 154.745 372.179 161.317 375.588 169.103C378.998 176.889 379.972 185.524 378.383 193.873C376.795 202.223 372.718 209.897 366.688 215.887C360.658 221.877 352.957 225.902 344.597 227.435C336.237 228.968 327.609 227.936 319.846 224.475C312.083 221.014 305.549 215.285 301.101 208.042C296.992 201.351 294.843 193.655 294.875 185.828C294.879 184.758 294.061 183.848 292.992 183.795Z" fill="#7586CE"/>
<path d="M376 186C376 207.539 358.539 225 337 225C315.461 225 298 207.539 298 186C298 164.461 315.461 147 337 147C358.539 147 376 164.461 376 186ZM301.285 186C301.285 205.725 317.275 221.715 337 221.715C356.725 221.715 372.715 205.725 372.715 186C372.715 166.275 356.725 150.285 337 150.285C317.275 150.285 301.285 166.275 301.285 186Z" fill="#7586CE" fill-opacity="0.2"/>
<path d="M304.77 204.89C303.988 205.349 303.722 206.357 304.214 207.12C307.638 212.435 312.308 216.846 317.828 219.962C323.826 223.348 330.613 225.085 337.5 224.997C344.387 224.909 351.127 222.998 357.036 219.46C362.945 215.921 367.812 210.881 371.141 204.852C374.47 198.823 376.143 192.019 375.99 185.133C375.837 178.248 373.864 171.525 370.27 165.65C366.676 159.775 361.59 154.956 355.53 151.683C349.952 148.671 343.732 147.068 337.409 147.002C336.502 146.993 335.79 147.754 335.819 148.661C335.848 149.568 336.606 150.275 337.513 150.288C343.255 150.371 348.902 151.837 353.969 154.573C359.519 157.57 364.177 161.983 367.468 167.364C370.759 172.745 372.566 178.901 372.707 185.206C372.847 191.512 371.314 197.743 368.266 203.264C365.217 208.786 360.76 213.401 355.349 216.642C349.937 219.882 343.765 221.632 337.458 221.712C331.151 221.793 324.935 220.202 319.443 217.102C314.428 214.271 310.179 210.273 307.05 205.457C306.556 204.697 305.553 204.432 304.77 204.89Z" fill="#5A45AF" fill-opacity="0.5"/>
<path d="M324.657 185.872V184.668L329.361 177.92H331.293V184.486H332.595V185.872H331.293V188H329.725V185.872H324.657ZM329.795 179.544L326.491 184.486H329.795V179.544ZM340.497 179.166H335.807V181.952C336.003 181.691 336.292 181.471 336.675 181.294C337.067 181.117 337.482 181.028 337.921 181.028C338.705 181.028 339.34 181.196 339.825 181.532C340.32 181.868 340.67 182.293 340.875 182.806C341.09 183.319 341.197 183.861 341.197 184.43C341.197 185.121 341.062 185.737 340.791 186.278C340.53 186.81 340.133 187.23 339.601 187.538C339.078 187.846 338.434 188 337.669 188C336.652 188 335.835 187.748 335.219 187.244C334.603 186.74 334.234 186.073 334.113 185.242H335.667C335.77 185.681 335.998 186.031 336.353 186.292C336.708 186.544 337.151 186.67 337.683 186.67C338.346 186.67 338.84 186.469 339.167 186.068C339.503 185.667 339.671 185.135 339.671 184.472C339.671 183.8 339.503 183.287 339.167 182.932C338.831 182.568 338.336 182.386 337.683 182.386C337.226 182.386 336.838 182.503 336.521 182.736C336.213 182.96 335.989 183.268 335.849 183.66H334.337V177.766H340.497V179.166ZM342.859 182.764C342.859 181.149 343.129 179.889 343.671 178.984C344.221 178.069 345.164 177.612 346.499 177.612C347.833 177.612 348.771 178.069 349.313 178.984C349.863 179.889 350.139 181.149 350.139 182.764C350.139 184.397 349.863 185.676 349.313 186.6C348.771 187.515 347.833 187.972 346.499 187.972C345.164 187.972 344.221 187.515 343.671 186.6C343.129 185.676 342.859 184.397 342.859 182.764ZM348.571 182.764C348.571 182.008 348.519 181.369 348.417 180.846C348.323 180.323 348.127 179.899 347.829 179.572C347.53 179.236 347.087 179.068 346.499 179.068C345.911 179.068 345.467 179.236 345.169 179.572C344.87 179.899 344.669 180.323 344.567 180.846C344.473 181.369 344.427 182.008 344.427 182.764C344.427 183.548 344.473 184.206 344.567 184.738C344.66 185.27 344.856 185.699 345.155 186.026C345.463 186.353 345.911 186.516 346.499 186.516C347.087 186.516 347.53 186.353 347.829 186.026C348.137 185.699 348.337 185.27 348.431 184.738C348.524 184.206 348.571 183.548 348.571 182.764Z" fill="#22376F"/>
<path d="M336.157 169.296H332.665L332.065 171H330.637L333.625 162.648H335.209L338.197 171H336.757L336.157 169.296ZM335.773 168.18L334.417 164.304L333.049 168.18H335.773ZM344.404 162.66V163.776H340.864V166.236H343.624V167.352H340.864V171H339.496V162.66H344.404Z" fill="#22376F" fill-opacity="0.5"/>
<defs>
<filter id="filter0_d_678_2143" x="238" y="88" width="196" height="196" filterUnits="userSpaceOnUse" color-interpolation-filters="sRGB">
<feFlood flood-opacity="0" result="BackgroundImageFix"/>
<feColorMatrix in="SourceAlpha" type="matrix" values="0 0 0 0 0 0 0 0 0 0 0 0 0 0 0 0 0 0 127 0" result="hardAlpha"/>
<feMorphology radius="10" operator="dilate" in="SourceAlpha" result="effect1_dropShadow_678_2143"/>
<feOffset dx="1" dy="1"/>
<feGaussianBlur stdDeviation="5"/>
<feComposite in2="hardAlpha" operator="out"/>
<feColorMatrix type="matrix" values="0 0 0 0 0.458824 0 0 0 0 0.52549 0 0 0 0 0.807843 0 0 0 0.2 0"/>
<feBlend mode="normal" in2="BackgroundImageFix" result="effect1_dropShadow_678_2143"/>
<feBlend mode="normal" in="SourceGraphic" in2="effect1_dropShadow_678_2143" result="shape"/>
</filter>
<linearGradient id="paint0_linear_678_2143" x1="342.217" y1="130" x2="342.217" y2="244.734" gradientUnits="userSpaceOnUse">
<stop stop-color="#22376F"/>
<stop offset="1" stop-color="#4A5EB3"/>
</linearGradient>
</defs>
</svg>
