<svg width="20" height="20" viewBox="0 0 20 20" fill="none" xmlns="http://www.w3.org/2000/svg">
<path d="M12.9426 3.93252C13.0008 3.99058 13.047 4.05955 13.0785 4.13548C13.11 4.21141 13.1263 4.29281 13.1263 4.37502C13.1263 4.45723 13.11 4.53863 13.0785 4.61456C13.047 4.69049 13.0008 4.75946 12.9426 4.81752L7.75889 10L12.9426 15.1825C13.06 15.2999 13.1259 15.459 13.1259 15.625C13.1259 15.791 13.06 15.9502 12.9426 16.0675C12.8253 16.1849 12.6661 16.2508 12.5001 16.2508C12.3342 16.2508 12.175 16.1849 12.0576 16.0675L6.43264 10.4425C6.37444 10.3845 6.32826 10.3155 6.29675 10.2396C6.26524 10.1636 6.24902 10.0822 6.24902 10C6.24902 9.91781 6.26524 9.83641 6.29675 9.76048C6.32826 9.68455 6.37444 9.61557 6.43264 9.55752L12.0576 3.93252C12.1157 3.87431 12.1847 3.82814 12.2606 3.79663C12.3365 3.76512 12.4179 3.7489 12.5001 3.7489C12.5824 3.7489 12.6638 3.76512 12.7397 3.79663C12.8156 3.82814 12.8846 3.87431 12.9426 3.93252Z" fill="white"/>
</svg>
