<svg width="236" height="45" viewBox="0 0 236 45" fill="none" xmlns="http://www.w3.org/2000/svg">
<path d="M23.3522 1.25488C24.7666 0.432666 26.3692 0 28.0002 0C29.6313 0 31.2339 0.432666 32.6483 1.25488L55.2196 14.3747C55.4568 14.5127 55.6538 14.7116 55.7908 14.9513C55.9279 15.191 56 15.463 56 15.7399C56 16.0168 55.9279 16.2889 55.7908 16.5286C55.6538 16.7683 55.4568 16.9671 55.2196 17.1051L46.6671 22.0747L46.6671 36.2086C46.6674 36.4155 46.6275 36.6204 46.5496 36.8117C46.4716 37.003 46.3572 37.1769 46.2128 37.3234L46.2066 37.3265L46.2004 37.336L46.1786 37.3549L46.1071 37.4242L45.8582 37.6572C45.5541 37.9273 45.2418 38.1878 44.9217 38.4382C43.8042 39.3068 42.6168 40.0789 41.3719 40.7466C37.2545 42.9575 32.6611 44.1043 28.0002 44.0849C23.3394 44.1043 18.746 42.9575 14.6286 40.7466C13.3847 40.0788 12.1983 39.3067 11.0819 38.4382C10.6716 38.1176 10.2751 37.7792 9.89342 37.4242C9.72239 37.2715 9.58436 37.0848 9.488 36.8756C9.39163 36.6664 9.339 36.4393 9.33342 36.2086L9.33342 22.0747L3.11114 18.4593L3.11114 33.0593C3.11114 33.4769 2.94725 33.8774 2.65552 34.1727C2.3638 34.468 1.96813 34.6339 1.55557 34.6339C1.14301 34.6339 0.747342 34.468 0.455616 34.1727C0.16389 33.8774 4.16164e-07 33.4769 4.16164e-07 33.0593L4.16164e-07 15.7383C-0.000203859 15.4556 0.0747972 15.178 0.217128 14.9348C0.359459 14.6915 0.563869 14.4915 0.808896 14.3558L23.3522 1.25488ZM32.6483 30.2218C31.2339 31.044 29.6313 31.4767 28.0002 31.4767C26.3692 31.4767 24.7666 31.044 23.3522 30.2218L12.4446 23.8823L12.4446 35.5063C13.5774 36.4475 14.7999 37.2725 16.0939 37.969C18.8317 39.4492 22.8606 40.9325 28.0002 40.9325C32.1494 40.9538 36.2394 39.9369 39.9066 37.9721C41.2009 37.2737 42.4234 36.4466 43.5559 35.5031V23.8823L32.6483 30.2187V30.2218ZM31.0989 3.98844C30.156 3.4403 29.0876 3.15186 28.0002 3.15186C26.9129 3.15186 25.8445 3.4403 24.9015 3.98844L4.67915 15.7383L24.9015 27.4914C25.8445 28.0395 26.9129 28.328 28.0002 28.328C29.0876 28.328 30.156 28.0395 31.0989 27.4914L51.3213 15.7383L31.0989 3.9853V3.98844Z" fill="#7586CE"/>
<path d="M74.5312 37H77.7812V27.625L84.6406 14.2188H80.9844L76.1562 24.3281L71.3281 14.2188H67.6719L74.5312 27.625V37ZM99.0312 37H102.484V14.2188H99.0312V23.9844H90.0156V14.2188H86.5625V37H90.0156V27.0469H99.0312V37ZM106.609 29.7656H116.234V26.5H106.609V29.7656ZM124.375 28.8438L127.672 18.8906H127.734L131.031 28.8438H124.375ZM133.781 37H137.422L129.141 14.2188H126.25L117.969 37H121.625L123.375 31.9062H132.016L133.781 37ZM139.578 37H142.844V27.3438C142.844 26.2083 143.151 25.3438 143.766 24.75C144.37 24.1458 145.141 23.8438 146.078 23.8438C147.016 23.8438 147.781 24.1458 148.375 24.75C148.979 25.3438 149.281 26.2083 149.281 27.3438V37H152.547V26.2188C152.495 24.3646 151.917 22.9583 150.812 22C149.698 21.0521 148.469 20.5781 147.125 20.5781C145.385 20.5781 143.979 21.2188 142.906 22.5H142.844V20.7812H139.578V37ZM157.25 32.0469L154.969 34.2812C157.083 36.2188 159.464 37.1875 162.109 37.1875C164.057 37.1667 165.656 36.7188 166.906 35.8438C168.167 34.9896 168.807 33.776 168.828 32.2031C168.828 30.8594 168.479 29.75 167.781 28.875C167.031 27.9792 165.812 27.4688 164.125 27.3438L161.438 27.1406C160.646 27.0573 160.094 26.8646 159.781 26.5625C159.438 26.2917 159.276 25.974 159.297 25.6094C159.297 25.0365 159.51 24.5677 159.938 24.2031C160.344 23.8385 161.057 23.6562 162.078 23.6562C162.974 23.6562 163.766 23.7865 164.453 24.0469C165.151 24.3385 165.812 24.7083 166.438 25.1562L168.453 22.7969C167.661 22.1094 166.766 21.5625 165.766 21.1562C165.245 20.9688 164.688 20.8229 164.094 20.7188C163.5 20.625 162.828 20.5781 162.078 20.5781C160.349 20.5781 158.922 20.9948 157.797 21.8281C156.641 22.6615 156.052 23.9115 156.031 25.5781C156.052 26.9635 156.5 28.0417 157.375 28.8125C158.229 29.6042 159.339 30.0625 160.703 30.1875L163.578 30.4375C164.182 30.4583 164.667 30.5885 165.031 30.8281C165.385 31.0573 165.562 31.4635 165.562 32.0469C165.562 32.7031 165.266 33.2135 164.672 33.5781C164.078 33.9427 163.312 34.125 162.375 34.125C160.281 34.125 158.573 33.4323 157.25 32.0469ZM171.344 28.875C171.344 30.5833 171.484 31.8854 171.766 32.7812C172.057 33.6771 172.505 34.4531 173.109 35.1094C173.557 35.6198 174.182 36.0781 174.984 36.4844C175.776 36.9323 176.792 37.1667 178.031 37.1875C179.312 37.1667 180.349 36.9323 181.141 36.4844C181.568 36.2969 181.917 36.0729 182.188 35.8125C182.49 35.5833 182.745 35.349 182.953 35.1094C183.599 34.4531 184.057 33.6771 184.328 32.7812C184.589 31.8854 184.719 30.5833 184.719 28.875C184.719 27.1667 184.589 25.8542 184.328 24.9375C184.057 24.0417 183.599 23.2865 182.953 22.6719C182.526 22.1302 181.922 21.6458 181.141 21.2188C180.349 20.8125 179.312 20.599 178.031 20.5781C176.792 20.599 175.776 20.8125 174.984 21.2188C174.182 21.6458 173.557 22.1302 173.109 22.6719C172.505 23.2865 172.057 24.0417 171.766 24.9375C171.484 25.8542 171.344 27.1667 171.344 28.875ZM181.453 28.9062C181.453 30.0104 181.401 30.8229 181.297 31.3438C181.193 31.875 180.979 32.3438 180.656 32.75C180.417 33.0625 180.062 33.3385 179.594 33.5781C179.146 33.8073 178.625 33.9219 178.031 33.9219C177.479 33.9219 176.969 33.8073 176.5 33.5781C176.052 33.3385 175.688 33.0625 175.406 32.75C175.125 32.3438 174.922 31.875 174.797 31.3438C174.672 30.8229 174.609 30 174.609 28.875C174.609 27.7396 174.672 26.9062 174.797 26.375C174.922 25.8646 175.125 25.4167 175.406 25.0312C175.688 24.6667 176.052 24.3802 176.5 24.1719C176.969 23.9531 177.479 23.8438 178.031 23.8438C178.625 23.8438 179.146 23.9531 179.594 24.1719C180.062 24.3802 180.417 24.6667 180.656 25.0312C180.979 25.4167 181.193 25.8646 181.297 26.375C181.401 26.9062 181.453 27.75 181.453 28.9062ZM179.172 18.25H182.641V14.7969H179.172V18.25ZM173.547 18.25H177V14.7969H173.547V18.25ZM188.141 37H191.406V32.3281L193.969 29.4219L198.281 37H202.375L196.016 27.1094L201.609 20.7812H197.703L191.469 28.3906H191.406V14.2188H188.141V37ZM213.281 37H216.547V25.9219C216.526 23.9427 215.906 22.5469 214.688 21.7344C213.469 20.9427 211.839 20.5573 209.797 20.5781C207.38 20.5365 205.552 21.3281 204.312 22.9531L206.875 24.9062C207.156 24.4375 207.542 24.1042 208.031 23.9062C208.5 23.7396 209.141 23.6562 209.953 23.6562C212.193 23.6146 213.302 24.3073 213.281 25.7344V27.4375H208.766C207.036 27.4583 205.724 27.9271 204.828 28.8438C203.932 29.7396 203.484 30.8698 203.484 32.2344C203.484 33.6615 204 34.8333 205.031 35.75C206.01 36.6875 207.406 37.1667 209.219 37.1875C210.323 37.1875 211.188 37.0521 211.812 36.7812C212.448 36.5208 212.917 36.1146 213.219 35.5625H213.281V37ZM213.281 31.2969C213.281 32.5156 213.026 33.2969 212.516 33.6406C211.953 33.9844 210.99 34.1458 209.625 34.125C208.542 34.125 207.766 33.9115 207.297 33.4844C206.807 33.099 206.562 32.6302 206.562 32.0781C206.542 30.8177 207.479 30.1667 209.375 30.125H213.281V31.2969ZM220.766 37H224.031V27.3438C224.031 26.2083 224.339 25.3438 224.953 24.75C225.557 24.1458 226.328 23.8438 227.266 23.8438C228.203 23.8438 228.969 24.1458 229.562 24.75C230.167 25.3438 230.469 26.2083 230.469 27.3438V37H233.734V26.2188C233.682 24.3646 233.104 22.9583 232 22C230.885 21.0521 229.656 20.5781 228.312 20.5781C226.573 20.5781 225.167 21.2188 224.094 22.5H224.031V20.7812H220.766V37Z" fill="#363636"/>
</svg>
