<svg width="157" height="28" viewBox="0 0 157 28" fill="none" xmlns="http://www.w3.org/2000/svg">
<path d="M43.1719 23H45.6094V15.9688L50.7539 5.91406H48.0117L44.3906 13.4961L40.7695 5.91406H38.0273L43.1719 15.9688V23ZM61.5469 23H64.1367V5.91406H61.5469V13.2383H54.7852V5.91406H52.1953V23H54.7852V15.5352H61.5469V23ZM76.1133 8.36328H79.8516C80.5547 8.34766 81.1719 8.50781 81.7031 8.84375C82.0547 9.04688 82.3281 9.32422 82.5234 9.67578C82.7109 10.0664 82.8047 10.5469 82.8047 11.1172C82.8047 11.8047 82.5742 12.4297 82.1133 12.9922C81.6289 13.5703 80.9062 13.8672 79.9453 13.8828H76.1133V8.36328ZM73.5234 23H76.1133V16.332H80.0508C81.8086 16.3008 83.1445 15.7383 84.0586 14.6445C84.9492 13.6055 85.3945 12.4531 85.3945 11.1875C85.3945 10.25 85.2188 9.4375 84.8672 8.75C84.5312 8.03906 84.0938 7.49219 83.5547 7.10938C82.9141 6.60156 82.2812 6.26562 81.6562 6.10156C81.0312 5.97656 80.3828 5.91406 79.7109 5.91406H73.5234V23ZM86.4844 16.9062C86.4844 18.1875 86.5898 19.1641 86.8008 19.8359C87.0195 20.5078 87.3555 21.0898 87.8086 21.582C88.1445 21.9648 88.6133 22.3086 89.2148 22.6133C89.8086 22.9492 90.5703 23.125 91.5 23.1406C92.4609 23.125 93.2383 22.9492 93.832 22.6133C94.1523 22.4727 94.4141 22.3047 94.6172 22.1094C94.8438 21.9375 95.0352 21.7617 95.1914 21.582C95.6758 21.0898 96.0195 20.5078 96.2227 19.8359C96.418 19.1641 96.5156 18.1875 96.5156 16.9062C96.5156 15.625 96.418 14.6406 96.2227 13.9531C96.0195 13.2812 95.6758 12.7148 95.1914 12.2539C94.8711 11.8477 94.418 11.4844 93.832 11.1641C93.2383 10.8594 92.4609 10.6992 91.5 10.6836C90.5703 10.6992 89.8086 10.8594 89.2148 11.1641C88.6133 11.4844 88.1445 11.8477 87.8086 12.2539C87.3555 12.7148 87.0195 13.2812 86.8008 13.9531C86.5898 14.6406 86.4844 15.625 86.4844 16.9062ZM94.0664 16.9297C94.0664 17.7578 94.0273 18.3672 93.9492 18.7578C93.8711 19.1562 93.7109 19.5078 93.4688 19.8125C93.2891 20.0469 93.0234 20.2539 92.6719 20.4336C92.3359 20.6055 91.9453 20.6914 91.5 20.6914C91.0859 20.6914 90.7031 20.6055 90.3516 20.4336C90.0156 20.2539 89.7422 20.0469 89.5312 19.8125C89.3203 19.5078 89.168 19.1562 89.0742 18.7578C88.9805 18.3672 88.9336 17.75 88.9336 16.9062C88.9336 16.0547 88.9805 15.4297 89.0742 15.0312C89.168 14.6484 89.3203 14.3125 89.5312 14.0234C89.7422 13.75 90.0156 13.5352 90.3516 13.3789C90.7031 13.2148 91.0859 13.1328 91.5 13.1328C91.9453 13.1328 92.3359 13.2148 92.6719 13.3789C93.0234 13.5352 93.2891 13.75 93.4688 14.0234C93.7109 14.3125 93.8711 14.6484 93.9492 15.0312C94.0273 15.4297 94.0664 16.0625 94.0664 16.9297ZM99.082 23H101.531V15.6758C101.547 14.7852 101.805 14.1406 102.305 13.7422C102.75 13.3359 103.285 13.1328 103.91 13.1328C104.465 13.1328 105 13.3359 105.516 13.7422L107.297 11.6211C106.57 11.0117 105.719 10.6992 104.742 10.6836C103.438 10.6836 102.383 11.1641 101.578 12.125H101.531V10.8359H99.082V23ZM108.574 10.8359H107.355V12.6992H108.574V20C108.574 20.9609 108.855 21.6953 109.418 22.2031C109.965 22.7344 110.668 23 111.527 23H112.805V20.6914H111.891C111.297 20.707 111.008 20.4062 111.023 19.7891V12.6992H112.805V10.8359H111.023V7.13281H108.574V10.8359ZM121.5 23H123.949V14.6914C123.934 13.207 123.469 12.1602 122.555 11.5508C121.641 10.957 120.418 10.668 118.887 10.6836C117.074 10.6523 115.703 11.2461 114.773 12.4648L116.695 13.9297C116.906 13.5781 117.195 13.3281 117.562 13.1797C117.914 13.0547 118.395 12.9922 119.004 12.9922C120.684 12.9609 121.516 13.4805 121.5 14.5508V15.8281H118.113C116.816 15.8438 115.832 16.1953 115.16 16.8828C114.488 17.5547 114.152 18.4023 114.152 19.4258C114.152 20.4961 114.539 21.375 115.312 22.0625C116.047 22.7656 117.094 23.125 118.453 23.1406C119.281 23.1406 119.93 23.0391 120.398 22.8359C120.875 22.6406 121.227 22.3359 121.453 21.9219H121.5V23ZM121.5 18.7227C121.5 19.6367 121.309 20.2227 120.926 20.4805C120.504 20.7383 119.781 20.8594 118.758 20.8438C117.945 20.8438 117.363 20.6836 117.012 20.3633C116.645 20.0742 116.461 19.7227 116.461 19.3086C116.445 18.3633 117.148 17.875 118.57 17.8438H121.5V18.7227ZM127.113 20.0469C127.113 21.1172 127.418 21.8789 128.027 22.332C128.605 22.7773 129.34 23 130.23 23H131.32V20.6914H130.477C129.867 20.6914 129.562 20.4141 129.562 19.8594V5.91406H127.113V20.0469ZM142.734 17.8438V15.8281C142.719 14.2266 142.223 12.9688 141.246 12.0547C140.285 11.1562 139.109 10.6992 137.719 10.6836C137.141 10.6836 136.555 10.7891 135.961 11C135.359 11.2109 134.816 11.5547 134.332 12.0312C133.855 12.5 133.465 13.1406 133.16 13.9531C132.855 14.75 132.703 15.75 132.703 16.9531C132.703 18.2031 132.879 19.2188 133.23 20C133.551 20.8125 133.969 21.4453 134.484 21.8984C134.75 22.1172 135.035 22.3008 135.34 22.4492C135.629 22.6211 135.926 22.7578 136.23 22.8594C136.84 23.0469 137.465 23.1406 138.105 23.1406C139.785 23.1562 141.246 22.5 142.488 21.1719L140.719 19.6602C139.938 20.4492 139.051 20.8438 138.059 20.8438C137.207 20.8438 136.52 20.5859 135.996 20.0703C135.434 19.5625 135.152 18.8203 135.152 17.8438H142.734ZM135.152 15.8281C135.199 14.8828 135.453 14.168 135.914 13.6836C136.383 13.2227 136.984 12.9922 137.719 12.9922C138.453 12.9922 139.055 13.2227 139.523 13.6836C140 14.168 140.254 14.8828 140.285 15.8281H135.152ZM145.301 23H147.75V15.7578C147.75 14.9062 147.98 14.2578 148.441 13.8125C148.895 13.3594 149.473 13.1328 150.176 13.1328C150.879 13.1328 151.453 13.3594 151.898 13.8125C152.352 14.2578 152.578 14.9062 152.578 15.7578V23H155.027V14.9141C154.988 13.5234 154.555 12.4688 153.727 11.75C152.891 11.0391 151.969 10.6836 150.961 10.6836C149.656 10.6836 148.602 11.1641 147.797 12.125H147.75V10.8359H145.301V23Z" fill="#363636"/>
<path d="M12.4312 2.66802C13.1842 2.23032 14.0373 2 14.9055 2C15.7738 2 16.6269 2.23032 17.3799 2.66802L29.3954 9.65218C29.5216 9.72564 29.6265 9.8315 29.6995 9.9591C29.7724 10.0867 29.8108 10.2315 29.8108 10.3789C29.8108 10.5263 29.7724 10.6712 29.6995 10.7987C29.6265 10.9263 29.5216 11.0322 29.3954 11.1057L24.8426 13.7511V21.2751C24.8427 21.3853 24.8215 21.4944 24.78 21.5962C24.7385 21.698 24.6776 21.7906 24.6008 21.8686L24.5974 21.8703L24.5941 21.8753L24.5825 21.8853L24.5444 21.9222L24.412 22.0463C24.2501 22.1901 24.0838 22.3287 23.9134 22.4621C23.3186 22.9244 22.6865 23.3354 22.0238 23.6909C19.8319 24.8678 17.3867 25.4783 14.9055 25.468C12.4244 25.4783 9.97918 24.8678 7.78731 23.6909C7.12516 23.3354 6.4936 22.9243 5.89928 22.4621C5.68087 22.2913 5.46979 22.1112 5.26662 21.9222C5.17558 21.841 5.1021 21.7415 5.0508 21.6302C4.9995 21.5188 4.97149 21.3979 4.96851 21.2751V13.7511L1.65617 11.8266L1.65617 19.5986C1.65617 19.821 1.56893 20.0342 1.41363 20.1914C1.25833 20.3486 1.04771 20.4369 0.828085 20.4369C0.608464 20.4369 0.397837 20.3486 0.242541 20.1914C0.0872446 20.0342 2.21539e-07 19.821 2.21539e-07 19.5986L2.21539e-07 10.3781C-0.000108521 10.2276 0.0398172 10.0798 0.115585 9.95032C0.191353 9.82082 0.300168 9.71436 0.430604 9.64212L12.4312 2.66802ZM17.3799 18.0882C16.6269 18.5258 15.7738 18.7562 14.9055 18.7562C14.0373 18.7562 13.1842 18.5258 12.4312 18.0882L6.62468 14.7134V20.9013C7.22774 21.4023 7.8785 21.8415 8.56737 22.2123C10.0248 23.0002 12.1695 23.7898 14.9055 23.7898C17.1143 23.8012 19.2915 23.2598 21.2437 22.2139C21.9327 21.8421 22.5835 21.4019 23.1864 20.8996V14.7134L17.3799 18.0865V18.0882ZM16.5551 4.12319C16.0531 3.83139 15.4844 3.67785 14.9055 3.67785C14.3267 3.67785 13.7579 3.83139 13.256 4.12319L2.49088 10.3781L13.256 16.6347C13.7579 16.9265 14.3267 17.08 14.9055 17.08C15.4844 17.08 16.0531 16.9265 16.5551 16.6347L27.3202 10.3781L16.5551 4.12152V4.12319Z" fill="#7586CE"/>
</svg>
