<svg width="18" height="18" viewBox="0 0 18 18" fill="none" xmlns="http://www.w3.org/2000/svg">
<path d="M11.25 3H4.5V15H13.5V5.25H11.25V3ZM4.5 1.5H12L15 4.5V15C15 15.3978 14.842 15.7794 14.5607 16.0607C14.2794 16.342 13.8978 16.5 13.5 16.5H4.5C4.10218 16.5 3.72064 16.342 3.43934 16.0607C3.15804 15.7794 3 15.3978 3 15V3C3 2.70333 3.08797 2.41332 3.2528 2.16665C3.41762 1.91997 3.65189 1.72771 3.92597 1.61418C4.20006 1.50065 4.50166 1.47094 4.79264 1.52882C5.08361 1.5867 5.35088 1.72956 5.56066 1.93934C5.77044 2.14912 5.9133 2.41639 5.97118 2.70737C6.02906 2.99834 5.99935 3.29994 5.88582 3.57403C5.77229 3.84812 5.58003 4.08238 5.33336 4.24721C5.08668 4.41203 4.79667 4.5 4.5 4.5V1.5ZM6 8.25H12V9.75H6V8.25ZM6 11.25H12V12.75H6V11.25Z" fill="white"/>
</svg>
