<svg width="20" height="17" viewBox="0 0 20 17" fill="none" xmlns="http://www.w3.org/2000/svg">
<g clip-path="url(#clip0_1002_871)">
<path d="M17.2257 0.804861C17.4028 0.235527 18.007 -0.110582 18.6042 0.0317267C19.198 0.174068 19.5591 0.751072 19.4098 1.32017L19.1077 2.47797C18.7257 3.93791 17.7119 5.11994 16.3889 5.78732V15.9375C16.3889 16.5252 15.8924 17 15.2778 17C14.6632 17 14.1667 16.5252 14.1667 15.9375V11.6875H13.6112V15.9375C13.6112 16.5252 13.1146 17 12.5001 17C11.8855 17 11.3889 16.5252 11.3889 15.9375V5.78732C10.066 5.11994 9.05214 3.93791 8.67019 2.47797L8.33686 1.32017C8.2188 0.751072 8.57991 0.174068 9.17366 0.0317267C9.77089 -0.110549 10.3751 0.235527 10.5209 0.804861L10.8264 1.96232C11.1771 3.30672 12.441 4.22013 13.8889 4.22013C15.3369 4.22013 16.6007 3.30672 16.9514 1.96232L17.2257 0.804861V0.804861ZM12.2223 1.56388C12.2223 0.713553 12.9688 1.76761e-05 13.8889 1.76761e-05C14.8091 1.76761e-05 15.5556 0.713553 15.5556 1.56388C15.5556 2.47398 14.8091 3.15763 13.8889 3.15763C12.9688 3.15763 12.2223 2.47398 12.2223 1.56388V1.56388ZM1.11151 1.59377C1.11151 0.713553 1.85769 1.76761e-05 2.77818 1.76761e-05C3.69797 1.76761e-05 4.4445 0.713553 4.4445 1.59377C4.4445 2.47398 3.69797 3.18752 2.77818 3.18752C1.85769 3.18752 1.11151 2.47398 1.11151 1.59377V1.59377ZM3.63547 4.25002C4.58686 4.25002 5.47228 4.71486 5.97922 5.48185L7.27783 7.43752H8.33339C8.94797 7.43752 9.4445 7.91232 9.4445 8.50002C9.4445 9.08771 8.94797 9.56252 8.33339 9.56252H6.66672C6.28478 9.56252 5.93408 9.37658 5.69797 9.06779L5.27783 8.39045V15.9375C5.27783 16.5252 4.7813 17 4.16672 17C3.55214 17 3.05561 16.5252 3.05561 15.9375V11.6875H2.50005V15.9375C2.50005 16.5252 2.00283 17 1.38894 17C0.775401 17 0.278006 16.5252 0.278006 15.9375V9.58244L0.277832 9.53263V6.34513C0.277832 5.20295 1.27262 4.22013 2.50005 4.22013L3.63547 4.25002V4.25002Z" fill="white"/>
</g>
<defs>
<clipPath id="clip0_1002_871">
<rect width="20" height="17" fill="white"/>
</clipPath>
</defs>
</svg>
