<svg width="15" height="16" viewBox="0 0 15 16" fill="none" xmlns="http://www.w3.org/2000/svg">
<path d="M14.7418 9.95343L13.3027 8.67183C12.886 8.30102 12.886 7.69355 13.3027 7.32274L14.7418 6.04031C15.1585 5.66949 15.0477 5.32451 14.4952 5.27035L12.5868 5.08952C12.0351 5.03786 11.7368 4.56205 11.9276 4.03458L12.9401 1.21557C13.1302 0.686428 12.8976 0.494772 12.4243 0.787256L10.1734 2.17885C10.0619 2.2487 9.93735 2.29501 9.8073 2.31495C9.67725 2.33488 9.5445 2.32802 9.4172 2.29477C9.2899 2.26152 9.17075 2.2026 9.06706 2.12162C8.96337 2.04064 8.87734 1.93931 8.81425 1.82387L7.99924 0.368945C7.72506 -0.121028 7.27256 -0.122695 6.99339 0.362279L6.23587 1.67887C5.95504 2.16635 5.31253 2.373 4.80835 2.14218L3.475 1.53055C2.96832 1.29723 2.58081 1.56555 2.61081 2.12718L2.68248 3.47294C2.71332 4.03458 2.29831 4.61205 1.76247 4.75704L0.474947 5.10202C-0.0600617 5.24702 -0.158397 5.66866 0.258277 6.03947L1.69747 7.3219C2.11414 7.69272 2.11414 8.30018 1.69747 8.671L0.258277 9.95343C-0.158397 10.3242 -0.0483949 10.6842 0.502447 10.7509L2.24831 10.9625C2.79915 11.0292 3.10582 11.5208 2.92999 12.055L2.03497 14.7698C1.85914 15.304 2.10997 15.5106 2.59165 15.2323L4.64418 14.044C4.88364 13.9115 5.1639 13.8728 5.4303 13.9357C5.6967 13.9985 5.93012 14.1584 6.08504 14.384L6.93672 15.6665C7.24672 16.1323 7.71256 16.1073 7.97007 15.6098L8.71925 14.1657C8.84397 13.9261 9.05735 13.7447 9.31391 13.6602C9.57046 13.5757 9.84988 13.5947 10.0926 13.7132L11.5376 14.4357C12.036 14.6832 12.4185 14.4274 12.3885 13.8674L12.316 12.52C12.2868 11.9583 12.7001 11.3825 13.2377 11.2375L14.5235 10.8909C15.0602 10.7459 15.1585 10.3242 14.7418 9.95343ZM8.33341 11.3334H6.66671V9.66678H8.33341V11.3334ZM8.33341 8.83349H6.66671V4.66705H8.33341V8.83349Z" fill="white"/>
</svg>
