<svg width="21" height="21" viewBox="0 0 21 21" fill="none" xmlns="http://www.w3.org/2000/svg">
<path d="M18.6869 4.31486L10.8119 1.68986C10.6093 1.62405 10.3911 1.62405 10.1885 1.68986L2.32989 4.30666H2.31349L2.27247 4.32307L2.22325 4.34767L2.16583 4.37228L2.13302 4.38869L2.0838 4.4215L2.05919 4.43791L2.00997 4.47072C2.00997 4.47507 2.00824 4.47925 2.00517 4.48232C2.00209 4.4854 1.99792 4.48713 1.99356 4.48713L1.93614 4.53635C1.93614 4.53852 1.93528 4.54061 1.93374 4.54215C1.9322 4.54369 1.93012 4.54455 1.92794 4.54455L1.87052 4.61017L1.85411 4.63478C1.84554 4.64028 1.83821 4.64749 1.83256 4.65596C1.82691 4.66443 1.82308 4.67398 1.8213 4.684L1.79669 4.70861L1.77208 4.74963C1.76388 4.76603 1.75567 4.77424 1.75567 4.78244L1.73106 4.83166L1.71466 4.86447L1.69005 4.9383C1.68449 4.94833 1.68167 4.95965 1.68185 4.97111C1.67273 4.98902 1.66716 5.00851 1.66544 5.02853C1.66544 5.03674 1.65724 5.05314 1.65724 5.06135C1.65724 5.06955 1.64903 5.10236 1.64903 5.11877V5.15158C1.64147 5.18381 1.63871 5.21698 1.64083 5.25002V11.8125C1.64083 12.0736 1.74454 12.324 1.92915 12.5086C2.11375 12.6932 2.36413 12.7969 2.62521 12.7969C2.88628 12.7969 3.13666 12.6932 3.32126 12.5086C3.50587 12.324 3.60958 12.0736 3.60958 11.8125V6.61174L5.55372 7.26799C4.9535 8.41781 4.77338 9.74106 5.04444 11.0095C5.31549 12.2779 6.02073 13.412 7.03849 14.216C5.64596 14.8639 4.46352 15.89 3.62599 17.1774C3.55489 17.2856 3.50581 17.4068 3.48155 17.5341C3.4573 17.6613 3.45834 17.7921 3.48462 17.9189C3.5109 18.0457 3.5619 18.1661 3.63472 18.2732C3.70753 18.3804 3.80073 18.4721 3.90899 18.5432C4.01726 18.6143 4.13847 18.6634 4.2657 18.6876C4.39293 18.7119 4.52369 18.7108 4.65052 18.6846C4.77735 18.6583 4.89776 18.6073 5.00487 18.5345C5.11199 18.4616 5.20372 18.3684 5.27481 18.2602C5.83966 17.3883 6.61368 16.6716 7.52636 16.1755C8.43904 15.6793 9.46137 15.4193 10.5002 15.4193C11.539 15.4193 12.5614 15.6793 13.4741 16.1755C14.3867 16.6716 15.1607 17.3883 15.7256 18.2602C15.8164 18.3967 15.9395 18.5086 16.0841 18.5859C16.2287 18.6632 16.3902 18.7035 16.5541 18.7031C16.7431 18.7035 16.9282 18.6494 17.0873 18.5473C17.3064 18.4032 17.4596 18.1782 17.5134 17.9215C17.5672 17.6649 17.5173 17.3973 17.3744 17.1774C16.5369 15.89 15.3544 14.8639 13.9619 14.216C14.9797 13.412 15.6849 12.2779 15.956 11.0095C16.227 9.74106 16.0469 8.41781 15.4467 7.26799L18.6869 6.18517C18.8839 6.12044 19.0553 5.99519 19.1769 5.82726C19.2985 5.65934 19.3639 5.45733 19.3639 5.25002C19.3639 5.04271 19.2985 4.84069 19.1769 4.67277C19.0553 4.50485 18.8839 4.37959 18.6869 4.31486V4.31486ZM10.5002 3.65861L15.2662 5.25002L13.56 5.81603L10.5002 6.84142L7.44044 5.81603L5.73419 5.25002L10.5002 3.65861ZM14.1096 9.84377C14.109 10.404 13.9781 10.9563 13.7271 11.4572C13.4761 11.958 13.112 12.3935 12.6636 12.7293C12.2152 13.0651 11.6948 13.2918 11.1436 13.3917C10.5924 13.4916 10.0255 13.4617 9.48778 13.3046C8.95008 13.1475 8.45633 12.8673 8.04563 12.4864C7.63492 12.1054 7.31852 11.6341 7.12148 11.1097C6.92444 10.5853 6.85216 10.0222 6.91037 9.46509C6.96858 8.90793 7.15567 8.37197 7.45685 7.89963L10.1885 8.81018C10.3911 8.87599 10.6093 8.87599 10.8119 8.81018L13.5436 7.89963C13.9151 8.47982 14.1117 9.15479 14.1096 9.84377V9.84377Z" fill="white"/>
</svg>
