<svg width="18" height="16" viewBox="0 0 18 16" fill="none" xmlns="http://www.w3.org/2000/svg">
<path d="M3.27273 12.4H1.63636V10.85H3.27273V12.4ZM3.27273 9.3H1.63636V7.75H3.27273V9.3ZM3.27273 6.2H1.63636V4.65H3.27273V6.2ZM3.27273 3.1H1.63636V1.55H3.27273V3.1ZM6.54545 12.4H4.90909V10.85H6.54545V12.4ZM6.54545 9.3H4.90909V7.75H6.54545V9.3ZM6.54545 6.2H4.90909V4.65H6.54545V6.2ZM6.54545 3.1H4.90909V1.55H6.54545V3.1ZM11.4545 12.4H8.18182V10.85H9.81818V9.3H8.18182V7.75H9.81818V6.2H8.18182V4.65H14.7273V9.3H16.3636V3.875C16.3636 3.44875 15.9955 3.1 15.5455 3.1H8.18182V0.775C8.18182 0.34875 7.81364 0 7.36364 0H0.818182C0.368182 0 0 0.34875 0 0.775V13.175C0 13.6013 0.368182 13.95 0.818182 13.95H11.4545V12.4ZM13.0909 6.2H11.4545V7.75H13.0909V6.2ZM13.0909 9.3H11.4545V10.85H13.0909V9.3ZM18 13.175C18 13.6013 17.6318 13.95 17.1818 13.95H16.3636V14.725C16.3636 15.1513 15.9955 15.5 15.5455 15.5C15.0955 15.5 14.7273 15.1513 14.7273 14.725V13.95H13.9091C13.4591 13.95 13.0909 13.6013 13.0909 13.175C13.0909 12.7488 13.4591 12.4 13.9091 12.4H14.7273V11.625C14.7273 11.1988 15.0955 10.85 15.5455 10.85C15.9955 10.85 16.3636 11.1988 16.3636 11.625V12.4H17.1818C17.6318 12.4 18 12.7488 18 13.175Z" fill="#464646"/>
</svg>
