<svg width="20" height="13" viewBox="0 0 20 13" fill="none" xmlns="http://www.w3.org/2000/svg">
<path d="M11 3.57143H1C0.45 3.57143 0 3.97321 0 4.46429C0 4.95536 0.45 5.35714 1 5.35714H11C11.55 5.35714 12 4.95536 12 4.46429C12 3.97321 11.55 3.57143 11 3.57143ZM11 0H1C0.45 0 0 0.401786 0 0.892857C0 1.38393 0.45 1.78571 1 1.78571H11C11.55 1.78571 12 1.38393 12 0.892857C12 0.401786 11.55 0 11 0ZM16 7.14286V4.46429C16 3.97321 15.55 3.57143 15 3.57143C14.45 3.57143 14 3.97321 14 4.46429V7.14286H11C10.45 7.14286 10 7.54464 10 8.03571C10 8.52679 10.45 8.92857 11 8.92857H14V11.6071C14 12.0982 14.45 12.5 15 12.5C15.55 12.5 16 12.0982 16 11.6071V8.92857H19C19.55 8.92857 20 8.52679 20 8.03571C20 7.54464 19.55 7.14286 19 7.14286H16ZM1 8.92857H7C7.55 8.92857 8 8.52679 8 8.03571C8 7.54464 7.55 7.14286 7 7.14286H1C0.45 7.14286 0 7.54464 0 8.03571C0 8.52679 0.45 8.92857 1 8.92857Z" fill="#464646"/>
</svg>
