<svg width="16" height="16" viewBox="0 0 16 16" fill="none" xmlns="http://www.w3.org/2000/svg">
<path d="M15 12H13V10H12V12H10V13H12V15H13V13H15V12Z" fill="#464646"/>
<path d="M8 14H4V1.99999H8V4.99999C8.00079 5.26496 8.1064 5.51885 8.29377 5.70622C8.48113 5.89358 8.73503 5.9992 9 5.99999H12V7.99999H13V4.99999C13.0018 4.93428 12.9893 4.86896 12.9634 4.80854C12.9375 4.74812 12.8988 4.69403 12.85 4.64999L9.35 1.14999C9.30598 1.10116 9.25189 1.06246 9.19147 1.03657C9.13104 1.01067 9.06572 0.998189 9 0.999987H4C3.73503 1.00078 3.48113 1.10639 3.29377 1.29375C3.1064 1.48112 3.00079 1.73501 3 1.99999V14C3.00079 14.265 3.1064 14.5189 3.29377 14.7062C3.48113 14.8936 3.73503 14.9992 4 15H8V14ZM9 2.19999L11.8 4.99999H9V2.19999Z" fill="#464646"/>
</svg>
