<svg width="20" height="15" viewBox="0 0 20 15" fill="none" xmlns="http://www.w3.org/2000/svg">
<path d="M8.34007 0.426975C8.84522 0.147215 9.41757 0 10.0001 0C10.5826 0 11.155 0.147215 11.6601 0.426975L19.7213 4.89101C19.806 4.93796 19.8764 5.00563 19.9253 5.08719C19.9742 5.16874 20 5.2613 20 5.35552C20 5.44975 19.9742 5.54231 19.9253 5.62386C19.8764 5.70542 19.806 5.77308 19.7213 5.82004L16.6668 7.51093V12.32C16.6669 12.3904 16.6527 12.4601 16.6248 12.5252C16.597 12.5903 16.5561 12.6495 16.5046 12.6993L16.5024 12.7004L16.5001 12.7036L16.4924 12.71L16.4668 12.7336L16.3779 12.8129C16.2693 12.9048 16.1578 12.9934 16.0435 13.0786C15.6444 13.3742 15.2203 13.6369 14.7757 13.8641C13.3052 14.6163 11.6647 15.0065 10.0001 14.9999C8.3355 15.0065 6.69501 14.6163 5.22449 13.8641C4.78025 13.6369 4.35654 13.3741 3.95781 13.0786C3.81128 12.9695 3.66967 12.8544 3.53336 12.7336C3.47228 12.6817 3.42299 12.6181 3.38857 12.5469C3.35415 12.4758 3.33536 12.3985 3.33336 12.32L3.33336 7.51093L1.11112 6.2808L1.11112 11.2485C1.11112 11.3906 1.05259 11.5268 0.948401 11.6273C0.844213 11.7278 0.702904 11.7842 0.55556 11.7842C0.408217 11.7842 0.266908 11.7278 0.16272 11.6273C0.0585322 11.5268 1.4863e-07 11.3906 1.4863e-07 11.2485L1.4863e-07 5.35499C-7.28068e-05 5.25879 0.0267133 5.16434 0.0775458 5.08157C0.128378 4.9988 0.201382 4.93076 0.288891 4.88458L8.34007 0.426975ZM11.6601 10.283C11.155 10.5628 10.5826 10.71 10.0001 10.71C9.41757 10.71 8.84522 10.5628 8.34007 10.283L4.44448 8.12599V12.081C4.84907 12.4013 5.28567 12.682 5.74783 12.919C6.72561 13.4226 8.16451 13.9273 10.0001 13.9273C11.4819 13.9346 12.9426 13.5886 14.2523 12.9201C14.7146 12.6824 15.1512 12.401 15.5557 12.08V8.12599L11.6601 10.2819V10.283ZM11.1068 1.35707C10.77 1.17057 10.3884 1.07242 10.0001 1.07242C9.61174 1.07242 9.23017 1.17057 8.89341 1.35707L1.67113 5.35499L8.89341 9.35397C9.23017 9.54048 9.61174 9.63863 10.0001 9.63863C10.3884 9.63863 10.77 9.54048 11.1068 9.35397L18.329 5.35499L11.1068 1.356V1.35707Z" fill="#7586CE"/>
</svg>
