<svg width="92" height="20" viewBox="0 0 92 16" fill="none" xmlns="http://www.w3.org/2000/svg">
<path d="M25.8086 13H27.2305V8.89844L30.2314 3.0332H28.6318L26.5195 7.45605L24.4072 3.0332H22.8076L25.8086 8.89844V13ZM36.5273 13H38.0381V3.0332H36.5273V7.30566H32.583V3.0332H31.0723V13H32.583V8.64551H36.5273V13ZM45.0244 4.46191H47.2051C47.6152 4.4528 47.9753 4.54622 48.2852 4.74219C48.4902 4.86068 48.6497 5.02246 48.7637 5.22754C48.873 5.4554 48.9277 5.73568 48.9277 6.06836C48.9277 6.4694 48.7933 6.83398 48.5244 7.16211C48.2419 7.49935 47.8203 7.67253 47.2598 7.68164H45.0244V4.46191ZM43.5137 13H45.0244V9.11035H47.3213C48.3467 9.09212 49.126 8.764 49.6592 8.12598C50.1787 7.51986 50.4385 6.84766 50.4385 6.10938C50.4385 5.5625 50.3359 5.08854 50.1309 4.6875C49.9349 4.27279 49.6797 3.95378 49.3652 3.73047C48.9915 3.43424 48.6224 3.23828 48.2578 3.14258C47.8932 3.06966 47.515 3.0332 47.123 3.0332H43.5137V13ZM51.0742 9.44531C51.0742 10.1927 51.1357 10.7624 51.2588 11.1543C51.3864 11.5462 51.5824 11.8857 51.8467 12.1729C52.0426 12.3962 52.3161 12.5967 52.667 12.7744C53.0133 12.9704 53.4577 13.0729 54 13.082C54.5605 13.0729 55.014 12.9704 55.3604 12.7744C55.5472 12.6924 55.6999 12.5944 55.8184 12.4805C55.9505 12.3802 56.0622 12.2777 56.1533 12.1729C56.4359 11.8857 56.6364 11.5462 56.7549 11.1543C56.8688 10.7624 56.9258 10.1927 56.9258 9.44531C56.9258 8.69792 56.8688 8.1237 56.7549 7.72266C56.6364 7.33073 56.4359 7.00033 56.1533 6.73145C55.9665 6.49447 55.7021 6.28255 55.3604 6.0957C55.014 5.91797 54.5605 5.82454 54 5.81543C53.4577 5.82454 53.0133 5.91797 52.667 6.0957C52.3161 6.28255 52.0426 6.49447 51.8467 6.73145C51.5824 7.00033 51.3864 7.33073 51.2588 7.72266C51.1357 8.1237 51.0742 8.69792 51.0742 9.44531ZM55.4971 9.45898C55.4971 9.94206 55.4743 10.2975 55.4287 10.5254C55.3831 10.7578 55.2897 10.9629 55.1484 11.1406C55.0436 11.2773 54.8887 11.3981 54.6836 11.5029C54.4876 11.6032 54.2598 11.6533 54 11.6533C53.7585 11.6533 53.5352 11.6032 53.3301 11.5029C53.1341 11.3981 52.9746 11.2773 52.8516 11.1406C52.7285 10.9629 52.6396 10.7578 52.585 10.5254C52.5303 10.2975 52.5029 9.9375 52.5029 9.44531C52.5029 8.94857 52.5303 8.58398 52.585 8.35156C52.6396 8.12826 52.7285 7.93229 52.8516 7.76367C52.9746 7.60417 53.1341 7.47884 53.3301 7.3877C53.5352 7.29199 53.7585 7.24414 54 7.24414C54.2598 7.24414 54.4876 7.29199 54.6836 7.3877C54.8887 7.47884 55.0436 7.60417 55.1484 7.76367C55.2897 7.93229 55.3831 8.12826 55.4287 8.35156C55.4743 8.58398 55.4971 8.95312 55.4971 9.45898ZM58.4229 13H59.8516V8.72754C59.8607 8.20801 60.0111 7.83203 60.3027 7.59961C60.5625 7.36263 60.8747 7.24414 61.2393 7.24414C61.5628 7.24414 61.875 7.36263 62.1758 7.59961L63.2148 6.3623C62.791 6.00684 62.2943 5.82454 61.7246 5.81543C60.9635 5.81543 60.3483 6.0957 59.8789 6.65625H59.8516V5.9043H58.4229V13ZM63.96 5.9043H63.249V6.99121H63.96V11.25C63.96 11.8105 64.124 12.2389 64.4521 12.5352C64.7712 12.8451 65.1813 13 65.6826 13H66.4277V11.6533H65.8945C65.5482 11.6624 65.3796 11.487 65.3887 11.127V6.99121H66.4277V5.9043H65.3887V3.74414H63.96V5.9043ZM71.5 13H72.9287V8.15332C72.9196 7.28743 72.6484 6.67676 72.1152 6.32129C71.582 5.97493 70.8688 5.80632 69.9756 5.81543C68.9183 5.7972 68.1185 6.14355 67.5762 6.85449L68.6973 7.70898C68.8203 7.50391 68.9889 7.35807 69.2031 7.27148C69.4082 7.19857 69.6885 7.16211 70.0439 7.16211C71.0238 7.14388 71.5091 7.44694 71.5 8.07129V8.81641H69.5244C68.7679 8.82552 68.1937 9.0306 67.8018 9.43164C67.4098 9.82357 67.2139 10.318 67.2139 10.915C67.2139 11.5394 67.4395 12.0521 67.8906 12.4531C68.319 12.8633 68.9297 13.0729 69.7227 13.082C70.2057 13.082 70.584 13.0228 70.8574 12.9043C71.1354 12.7904 71.3405 12.6126 71.4727 12.3711H71.5V13ZM71.5 10.5049C71.5 11.0381 71.3883 11.3799 71.165 11.5303C70.9189 11.6807 70.4974 11.7513 69.9004 11.7422C69.4264 11.7422 69.0869 11.6488 68.8818 11.4619C68.6676 11.2933 68.5605 11.0882 68.5605 10.8467C68.5514 10.2952 68.9616 10.0104 69.791 9.99219H71.5V10.5049ZM74.7744 11.2773C74.7744 11.9017 74.9521 12.346 75.3076 12.6104C75.6449 12.8701 76.0732 13 76.5928 13H77.2285V11.6533H76.7363C76.3809 11.6533 76.2031 11.4915 76.2031 11.168V3.0332H74.7744V11.2773ZM83.8867 9.99219V8.81641C83.8776 7.88216 83.5882 7.14844 83.0186 6.61523C82.458 6.09115 81.7721 5.82454 80.9609 5.81543C80.6237 5.81543 80.2819 5.87695 79.9355 6C79.5846 6.12305 79.2679 6.32357 78.9854 6.60156C78.7074 6.875 78.4795 7.2487 78.3018 7.72266C78.124 8.1875 78.0352 8.77083 78.0352 9.47266C78.0352 10.2018 78.1377 10.7943 78.3428 11.25C78.5296 11.724 78.7734 12.0931 79.0742 12.3574C79.2292 12.485 79.3955 12.5921 79.5732 12.6787C79.7419 12.779 79.915 12.8587 80.0928 12.918C80.4482 13.0273 80.8128 13.082 81.1865 13.082C82.1663 13.0911 83.0186 12.7083 83.7432 11.9336L82.7109 11.0518C82.2552 11.512 81.738 11.7422 81.1592 11.7422C80.6624 11.7422 80.2614 11.5918 79.9561 11.291C79.6279 10.9948 79.4639 10.5618 79.4639 9.99219H83.8867ZM79.4639 8.81641C79.4912 8.26497 79.6393 7.84798 79.9082 7.56543C80.1816 7.29655 80.5326 7.16211 80.9609 7.16211C81.3893 7.16211 81.7402 7.29655 82.0137 7.56543C82.2917 7.84798 82.4398 8.26497 82.458 8.81641H79.4639ZM85.3838 13H86.8125V8.77539C86.8125 8.27865 86.9469 7.90039 87.2158 7.64062C87.4801 7.3763 87.8174 7.24414 88.2275 7.24414C88.6377 7.24414 88.9727 7.3763 89.2324 7.64062C89.4967 7.90039 89.6289 8.27865 89.6289 8.77539V13H91.0576V8.2832C91.0348 7.47201 90.7819 6.85677 90.2988 6.4375C89.8112 6.02279 89.2734 5.81543 88.6855 5.81543C87.9245 5.81543 87.3092 6.0957 86.8398 6.65625H86.8125V5.9043H85.3838V13Z" fill="white"/>
<path d="M6.25505 1.99571C6.63391 1.77547 7.06318 1.65958 7.50006 1.65958C7.93695 1.65958 8.36622 1.77547 8.74508 1.99571L14.791 5.50995C14.8545 5.54691 14.9073 5.60018 14.944 5.66438C14.9807 5.72858 15 5.80145 15 5.87563C15 5.9498 14.9807 6.02267 14.944 6.08687C14.9073 6.15107 14.8545 6.20434 14.791 6.24131L12.5001 7.57243V11.3583C12.5002 11.4137 12.4895 11.4686 12.4686 11.5199C12.4478 11.5711 12.4171 11.6177 12.3784 11.6569L12.3768 11.6578L12.3751 11.6603L12.3693 11.6654L12.3501 11.6839L12.2834 11.7463C12.202 11.8187 12.1183 11.8884 12.0326 11.9555C11.7333 12.1882 11.4152 12.395 11.0818 12.5739C9.97887 13.1661 8.74851 13.4732 7.50006 13.468C6.25162 13.4732 5.02126 13.1661 3.91837 12.5739C3.58519 12.395 3.26741 12.1881 2.96836 11.9555C2.85846 11.8696 2.75225 11.779 2.65002 11.6839C2.60421 11.643 2.56724 11.593 2.54143 11.537C2.51562 11.4809 2.50152 11.4201 2.50002 11.3583L2.50002 7.57243L0.833341 6.60403L0.833341 10.5147C0.833341 10.6266 0.789442 10.7339 0.711301 10.813C0.63316 10.8921 0.527178 10.9365 0.41667 10.9365C0.306163 10.9365 0.200181 10.8921 0.12204 10.813C0.0438992 10.7339 1.11472e-07 10.6266 1.11472e-07 10.5147L1.11472e-07 5.8752C-5.46051e-05 5.79947 0.020035 5.72512 0.0581593 5.65996C0.0962837 5.5948 0.151036 5.54124 0.216669 5.50488L6.25505 1.99571ZM8.74508 9.7547C8.36622 9.97494 7.93695 10.0908 7.50006 10.0908C7.06318 10.0908 6.63391 9.97494 6.25505 9.7547L3.33336 8.05663V11.1702C3.6368 11.4223 3.96425 11.6433 4.31087 11.8298C5.04421 12.2263 6.12339 12.6236 7.50006 12.6236C8.61143 12.6293 9.70698 12.357 10.6893 11.8307C11.036 11.6436 11.3634 11.4221 11.6668 11.1693V8.05663L8.74508 9.75386V9.7547ZM8.33007 2.72791C8.0775 2.58109 7.79132 2.50382 7.50006 2.50382C7.2088 2.50382 6.92263 2.58109 6.67006 2.72791L1.25334 5.8752L6.67006 9.02334C6.92263 9.17017 7.2088 9.24743 7.50006 9.24743C7.79132 9.24743 8.0775 9.17017 8.33007 9.02334L13.7468 5.8752L8.33007 2.72707V2.72791Z" fill="#7586CE"/>
</svg>
