<svg width="26" height="26" viewBox="0 0 26 26" fill="none" xmlns="http://www.w3.org/2000/svg">
<path d="M21.9375 9.75005C21.9389 8.24375 21.5596 6.76153 20.8348 5.44109C20.11 4.12064 19.0632 3.0048 17.7916 2.19723C16.5201 1.38966 15.0651 0.91656 13.5618 0.821876C12.0585 0.727192 10.5556 1.014 9.19282 1.65565C7.83002 2.2973 6.6515 3.27298 5.76674 4.49205C4.88198 5.71112 4.31968 7.13404 4.13209 8.62861C3.94449 10.1232 4.13768 11.6409 4.6937 13.0408C5.24973 14.4408 6.15056 15.6774 7.3125 16.636V24.3751C7.31167 24.5137 7.34679 24.6502 7.41443 24.7712C7.48207 24.8923 7.57992 24.9937 7.69844 25.0657C7.816 25.1396 7.95055 25.1821 8.08924 25.1892C8.22792 25.1963 8.36611 25.1678 8.49062 25.1063L13 22.8415L17.5094 25.1063C17.6247 25.1573 17.749 25.1849 17.875 25.1876C18.0905 25.1876 18.2972 25.1019 18.4495 24.9496C18.6019 24.7972 18.6875 24.5905 18.6875 24.3751V16.636C19.7039 15.7993 20.5225 14.7479 21.0844 13.5574C21.6464 12.3668 21.9377 11.0666 21.9375 9.75005ZM5.6875 9.75005C5.6875 8.30378 6.11637 6.88998 6.91988 5.68744C7.72339 4.48491 8.86544 3.54765 10.2016 2.99418C11.5378 2.44072 13.0081 2.2959 14.4266 2.57806C15.8451 2.86021 17.148 3.55666 18.1707 4.57933C19.1934 5.602 19.8898 6.90497 20.172 8.32345C20.4541 9.74194 20.3093 11.2122 19.7559 12.5484C19.2024 13.8846 18.2651 15.0267 17.0626 15.8302C15.8601 16.6337 14.4463 17.0626 13 17.0626C11.0614 17.0599 9.20303 16.2886 7.83225 14.9178C6.46147 13.547 5.69019 11.6886 5.6875 9.75005ZM17.0625 23.0649L13.3656 21.2063C13.2516 21.1514 13.1266 21.1229 13 21.1229C12.8734 21.1229 12.7484 21.1514 12.6344 21.2063L8.9375 23.0649V17.7126C10.1957 18.3537 11.5878 18.688 13 18.688C14.4122 18.688 15.8043 18.3537 17.0625 17.7126V23.0649ZM13 15.4376C14.1249 15.4376 15.2245 15.104 16.1598 14.479C17.0951 13.8541 17.8241 12.9658 18.2546 11.9266C18.685 10.8873 18.7977 9.74374 18.5782 8.64048C18.3588 7.53721 17.8171 6.52379 17.0217 5.72838C16.2263 4.93297 15.2128 4.39129 14.1096 4.17183C13.0063 3.95238 11.8627 4.06501 10.8235 4.49549C9.78423 4.92596 8.89597 5.65494 8.27102 6.59025C7.64606 7.52555 7.3125 8.62517 7.3125 9.75005C7.3125 11.2585 7.91172 12.7051 8.97833 13.7717C10.0449 14.8383 11.4916 15.4376 13 15.4376ZM13 13.8126C11.9226 13.8126 10.8892 13.3845 10.1274 12.6227C9.36551 11.8608 8.9375 10.8275 8.9375 9.75005C8.94018 8.67343 9.36905 7.64168 10.1303 6.88039C10.8916 6.11911 11.9234 5.69023 13 5.68755V13.8126Z" fill="white"/>
</svg>
