<svg width="34" height="26" viewBox="0 0 34 26" fill="none" xmlns="http://www.w3.org/2000/svg">
<path d="M12.875 3.25V21.125H22.625V3.25H12.875ZM12.0625 1.625H23.4375V3.25C23.2768 3.25 23.1197 3.20235 22.9861 3.11307C22.8525 3.02379 22.7483 2.8969 22.6868 2.74843C22.6254 2.59997 22.6093 2.4366 22.6406 2.27899C22.672 2.12138 22.7493 1.97661 22.863 1.86298C22.9766 1.74935 23.1214 1.67196 23.279 1.64061C23.4366 1.60926 23.6 1.62535 23.7484 1.68685C23.8969 1.74834 24.0238 1.85248 24.1131 1.9861C24.2023 2.11971 24.25 2.2768 24.25 2.4375V21.9375C24.25 22.153 24.1644 22.3597 24.012 22.512C23.8597 22.6644 23.653 22.75 23.4375 22.75H12.0625C11.847 22.75 11.6403 22.6644 11.488 22.512C11.3356 22.3597 11.25 22.153 11.25 21.9375V2.4375C11.25 2.2768 11.2977 2.11971 11.3869 1.9861C11.4762 1.85248 11.6031 1.74834 11.7516 1.68685C11.9 1.62535 12.0634 1.60926 12.221 1.64061C12.3786 1.67196 12.5234 1.74935 12.637 1.86298C12.7507 1.97661 12.828 2.12138 12.8594 2.27899C12.8907 2.4366 12.8746 2.59997 12.8132 2.74843C12.7517 2.8969 12.6475 3.02379 12.5139 3.11307C12.3803 3.20235 12.2232 3.25 12.0625 3.25V1.625Z" fill="white"/>
<path d="M14.5 6.5H21V8.125H14.5V6.5ZM14.5 11.375H21V13H14.5V11.375ZM14.5 16.25H21V17.875H14.5V16.25ZM24.25 13H27.5V14.625H24.25V13ZM24.25 16.25H27.5V17.875H24.25V16.25ZM9.625 21.125H32.375V22.75H9.625V21.125Z" fill="white"/>
<path d="M24.25 9.75V21.125H29.125V9.75H24.25ZM23.4375 8.125H29.9375V9.75C29.7768 9.75 29.6197 9.70235 29.4861 9.61307C29.3525 9.52379 29.2483 9.3969 29.1868 9.24843C29.1254 9.09997 29.1093 8.9366 29.1406 8.77899C29.172 8.62138 29.2493 8.47661 29.363 8.36298C29.4766 8.24935 29.6214 8.17196 29.779 8.14061C29.9366 8.10926 30.1 8.12535 30.2484 8.18685C30.3969 8.24834 30.5238 8.35248 30.6131 8.4861C30.7023 8.61971 30.75 8.7768 30.75 8.9375V21.9375C30.75 22.153 30.6644 22.3597 30.512 22.512C30.3597 22.6644 30.153 22.75 29.9375 22.75H23.4375C23.222 22.75 23.0153 22.6644 22.863 22.512C22.7106 22.3597 22.625 22.153 22.625 21.9375V8.9375C22.625 8.7768 22.6727 8.61971 22.7619 8.4861C22.8512 8.35248 22.9781 8.24834 23.1266 8.18685C23.275 8.12535 23.4384 8.10926 23.596 8.14061C23.7536 8.17196 23.8984 8.24935 24.012 8.36298C24.1257 8.47661 24.203 8.62138 24.2344 8.77899C24.2657 8.9366 24.2496 9.09997 24.1882 9.24843C24.1267 9.3969 24.0225 9.52379 23.8889 9.61307C23.7553 9.70235 23.5982 9.75 23.4375 9.75V8.125Z" fill="white"/>
<path d="M9.85059 10.9863V12.8936H1.0791V10.9863H9.85059ZM6.49316 7.40039V16.7168H4.44531V7.40039H6.49316Z" fill="#FEFEFE"/>
</svg>
