<svg width="26" height="26" viewBox="0 0 26 26" fill="none" xmlns="http://www.w3.org/2000/svg">
<path d="M17.2224 16.3109C17.8369 15.9809 18.5402 15.793 19.2892 15.793H19.2917C19.3679 15.793 19.4035 15.7016 19.3476 15.6508C18.5686 14.9517 17.6788 14.3871 16.7146 13.9801C16.7044 13.975 16.6943 13.9725 16.6841 13.9674C18.2609 12.8223 19.2867 10.9611 19.2867 8.86133C19.2867 5.38281 16.4734 2.56445 13.0025 2.56445C9.53158 2.56445 6.72084 5.38281 6.72084 8.86133C6.72084 10.9611 7.74662 12.8223 9.32592 13.9674C9.31576 13.9725 9.30561 13.975 9.29545 13.9801C8.16049 14.46 7.14232 15.148 6.26635 16.0266C5.39543 16.8959 4.70207 17.9265 4.22494 19.0607C3.7555 20.1715 3.50215 21.3615 3.47846 22.5672C3.47778 22.5943 3.48253 22.6212 3.49244 22.6465C3.50234 22.6717 3.5172 22.6947 3.53613 22.7141C3.55506 22.7335 3.57768 22.7489 3.60266 22.7595C3.62764 22.77 3.65447 22.7754 3.68158 22.7754H5.20248C5.31166 22.7754 5.40307 22.6865 5.40561 22.5773C5.45639 20.6172 6.24096 18.7814 7.62982 17.39C9.06439 15.9504 10.9738 15.1582 13.005 15.1582C14.4447 15.1582 15.8259 15.5568 17.0167 16.3033C17.0473 16.3225 17.0824 16.3334 17.1185 16.3347C17.1547 16.336 17.1905 16.3278 17.2224 16.3109ZM13.005 13.2285C11.8421 13.2285 10.7478 12.774 9.9226 11.9488C9.51659 11.5439 9.19472 11.0626 8.97553 10.5327C8.75634 10.0028 8.64416 9.43477 8.64545 8.86133C8.64545 7.6959 9.09994 6.59902 9.9226 5.77383C10.7453 4.94863 11.8396 4.49414 13.005 4.49414C14.1704 4.49414 15.2622 4.94863 16.0874 5.77383C16.4934 6.17878 16.8153 6.66007 17.0345 7.18997C17.2537 7.71986 17.3659 8.28789 17.3646 8.86133C17.3646 10.0268 16.9101 11.1236 16.0874 11.9488C15.2622 12.774 14.1679 13.2285 13.005 13.2285ZM22.3437 19.2715H20.2109V17.1387C20.2109 17.027 20.1195 16.9355 20.0078 16.9355H18.5859C18.4742 16.9355 18.3828 17.027 18.3828 17.1387V19.2715H16.2499C16.1382 19.2715 16.0468 19.3629 16.0468 19.4746V20.8965C16.0468 21.0082 16.1382 21.0996 16.2499 21.0996H18.3828V23.2324C18.3828 23.3441 18.4742 23.4355 18.5859 23.4355H20.0078C20.1195 23.4355 20.2109 23.3441 20.2109 23.2324V21.0996H22.3437C22.4554 21.0996 22.5468 21.0082 22.5468 20.8965V19.4746C22.5468 19.3629 22.4554 19.2715 22.3437 19.2715Z" fill="white"/>
</svg>
