<svg width="20" height="16" viewBox="0 0 20 16" fill="none" xmlns="http://www.w3.org/2000/svg">
<path d="M6.09484 6.42383V7.44336H0.247179V6.42383H6.09484ZM3.71593 3.93359V10.1445H2.63194V3.93359H3.71593Z" fill="#7586CE"/>
<path d="M8.625 1.90702V12.3958H13.875V1.90702H8.625ZM8.1875 0.953491H14.3125V1.90702C14.226 1.90702 14.1414 1.87906 14.0694 1.82667C13.9975 1.77428 13.9414 1.69982 13.9083 1.6127C13.8752 1.52559 13.8665 1.42973 13.8834 1.33724C13.9003 1.24476 13.942 1.15981 14.0031 1.09313C14.0643 1.02646 14.1423 0.981048 14.2271 0.962652C14.312 0.944256 14.4 0.953698 14.4799 0.989783C14.5599 1.02587 14.6282 1.08698 14.6763 1.16538C14.7243 1.24378 14.75 1.33596 14.75 1.43025V12.8726C14.75 12.999 14.7039 13.1203 14.6219 13.2097C14.5398 13.2991 14.4285 13.3493 14.3125 13.3493H8.1875C8.07147 13.3493 7.96019 13.2991 7.87814 13.2097C7.79609 13.1203 7.75 12.999 7.75 12.8726V1.43025C7.75 1.33596 7.77566 1.24378 7.82373 1.16538C7.87181 1.08698 7.94013 1.02587 8.02008 0.989783C8.10002 0.953698 8.18799 0.944256 8.27285 0.962652C8.35772 0.981048 8.43567 1.02646 8.49686 1.09313C8.55804 1.15981 8.59971 1.24476 8.61659 1.33724C8.63347 1.42973 8.62481 1.52559 8.5917 1.6127C8.55858 1.69982 8.50251 1.77428 8.43056 1.82667C8.35862 1.87906 8.27403 1.90702 8.1875 1.90702V0.953491Z" fill="#7586CE"/>
<path d="M9.5 3.81409H13V4.76761H9.5V3.81409ZM9.5 6.67466H13V7.62819H9.5V6.67466ZM9.5 9.53524H13V10.4888H9.5V9.53524ZM14.75 7.62819H16.5V8.58172H14.75V7.62819ZM14.75 9.53524H16.5V10.4888H14.75V9.53524ZM6.875 12.3958H19.125V13.3493H6.875V12.3958Z" fill="#7586CE"/>
<path d="M14.75 5.7211V12.3958H17.375V5.7211H14.75ZM14.3125 4.76758H17.8125V5.7211C17.726 5.7211 17.6414 5.69314 17.5694 5.64076C17.4975 5.58837 17.4414 5.51391 17.4083 5.42679C17.3752 5.33967 17.3665 5.24381 17.3834 5.15133C17.4003 5.05885 17.442 4.9739 17.5031 4.90722C17.5643 4.84054 17.6423 4.79514 17.7271 4.77674C17.812 4.75834 17.9 4.76778 17.9799 4.80387C18.0599 4.83995 18.1282 4.90106 18.1763 4.97947C18.2243 5.05787 18.25 5.15005 18.25 5.24434V12.8725C18.25 12.999 18.2039 13.1203 18.1219 13.2097C18.0398 13.2991 17.9285 13.3493 17.8125 13.3493H14.3125C14.1965 13.3493 14.0852 13.2991 14.0031 13.2097C13.9211 13.1203 13.875 12.999 13.875 12.8725V5.24434C13.875 5.15005 13.9007 5.05787 13.9487 4.97947C13.9968 4.90106 14.0651 4.83995 14.1451 4.80387C14.225 4.76778 14.313 4.75834 14.3979 4.77674C14.4827 4.79514 14.5607 4.84054 14.6219 4.90722C14.683 4.9739 14.7247 5.05885 14.7416 5.15133C14.7585 5.24381 14.7498 5.33967 14.7167 5.42679C14.6836 5.51391 14.6275 5.58837 14.5556 5.64076C14.4836 5.69314 14.399 5.7211 14.3125 5.7211V4.76758Z" fill="#7586CE"/>
</svg>
