<svg width="16" height="18" viewBox="0 0 16 18" fill="none" xmlns="http://www.w3.org/2000/svg">
<path d="M11.2481 11.5469C11.7208 11.293 12.2618 11.1484 12.8379 11.1484H12.8399C12.8985 11.1484 12.9258 11.0781 12.8829 11.0391C12.2837 10.5013 11.5992 10.067 10.8575 9.75391C10.8497 9.75 10.8418 9.74805 10.834 9.74414C12.0469 8.86328 12.836 7.43164 12.836 5.81641C12.836 3.14062 10.6719 0.972656 8.002 0.972656C5.33208 0.972656 3.16997 3.14062 3.16997 5.81641C3.16997 7.43164 3.95903 8.86328 5.17388 9.74414C5.16606 9.74805 5.15825 9.75 5.15044 9.75391C4.27739 10.123 3.49419 10.6523 2.82036 11.3281C2.15042 11.9968 1.61707 12.7896 1.25005 13.6621C0.888942 14.5165 0.694056 15.432 0.67583 16.3594C0.675309 16.3802 0.678965 16.401 0.686584 16.4204C0.694202 16.4398 0.705629 16.4575 0.72019 16.4724C0.734752 16.4873 0.752153 16.4992 0.771369 16.5073C0.790586 16.5154 0.811228 16.5195 0.83208 16.5195H2.002C2.08599 16.5195 2.1563 16.4512 2.15825 16.3672C2.19731 14.8594 2.80083 13.4473 3.86919 12.377C4.9727 11.2695 6.44146 10.6602 8.00396 10.6602C9.11138 10.6602 10.1739 10.9668 11.0899 11.541C11.1134 11.5558 11.1404 11.5641 11.1682 11.5652C11.196 11.5662 11.2235 11.5599 11.2481 11.5469ZM8.00396 9.17578C7.10942 9.17578 6.26763 8.82617 5.63286 8.19141C5.32055 7.8799 5.07295 7.50968 4.90435 7.10207C4.73574 6.69446 4.64944 6.25751 4.65044 5.81641C4.65044 4.91992 5.00005 4.07617 5.63286 3.44141C6.26567 2.80664 7.10747 2.45703 8.00396 2.45703C8.90044 2.45703 9.74028 2.80664 10.375 3.44141C10.6874 3.75291 10.935 4.12313 11.1036 4.53074C11.2722 4.93836 11.3585 5.3753 11.3575 5.81641C11.3575 6.71289 11.0079 7.55664 10.375 8.19141C9.74028 8.82617 8.89849 9.17578 8.00396 9.17578ZM15.1875 13.8242H13.5469V12.1836C13.5469 12.0977 13.4766 12.0273 13.3907 12.0273H12.2969C12.211 12.0273 12.1407 12.0977 12.1407 12.1836V13.8242H10.5C10.4141 13.8242 10.3438 13.8945 10.3438 13.9805V15.0742C10.3438 15.1602 10.4141 15.2305 10.5 15.2305H12.1407V16.8711C12.1407 16.957 12.211 17.0273 12.2969 17.0273H13.3907C13.4766 17.0273 13.5469 16.957 13.5469 16.8711V15.2305H15.1875C15.2735 15.2305 15.3438 15.1602 15.3438 15.0742V13.9805C15.3438 13.8945 15.2735 13.8242 15.1875 13.8242Z" fill="#7586CE"/>
</svg>
