<svg width="21" height="16" viewBox="0 0 21 16" fill="none" xmlns="http://www.w3.org/2000/svg">
<path d="M10.1623 8.21202C9.66001 8.25152 9.19119 8.01451 8.68889 7.817C6.04343 6.78996 3.39797 5.76292 0.786002 4.69637C0.618567 4.61737 0.48462 4.53837 0.350673 4.41986C0.183239 4.26186 0.183239 4.06435 0.350673 3.90634C0.48462 3.78784 0.652054 3.66933 0.819489 3.62983C3.63238 2.64229 6.44527 1.65475 9.25817 0.627708C9.89442 0.390699 10.5307 0.390699 11.2004 0.627708C13.9798 1.61525 16.7927 2.60279 19.5721 3.59033C19.7395 3.66933 19.907 3.74833 20.0744 3.86684C20.2753 4.02485 20.2753 4.26186 20.0744 4.41986C19.9405 4.53837 19.8065 4.61737 19.6726 4.65687C16.8932 5.76292 14.0803 6.86896 11.2674 7.93551C10.899 8.13301 10.5642 8.21202 10.1623 8.21202Z" fill="#7586CE"/>
<path d="M4.60338 8.36997C4.20153 8.25146 4.10107 8.56748 4.10107 8.80449C4.10107 10.0685 4.10107 11.2931 4.10107 12.5571C4.10107 12.9917 4.23502 13.2682 4.46943 13.5447C4.56989 13.6632 4.67035 13.7422 4.77081 13.8212C5.44055 14.3742 6.21074 14.7297 7.01443 14.9667C8.58831 15.4803 10.1957 15.5593 11.803 15.3222C12.8411 15.1642 13.8792 14.8482 14.8503 14.3347C15.2857 14.0977 15.6875 13.8212 15.9889 13.4262C16.1898 13.1892 16.2903 12.9522 16.2568 12.5966C16.2903 11.4116 16.2903 10.187 16.2903 8.96249C16.2903 8.29097 15.8884 8.36997 15.721 8.40947C14.2476 9.00199 12.7407 9.55502 11.2673 10.1475C10.5305 10.4241 9.82732 10.4241 9.09061 10.1475L4.60338 8.36997Z" fill="#7586CE"/>
<path d="M18.5339 7.22456C18.3999 7.26406 18.3665 7.34307 18.3665 7.50107C18.3665 8.60712 18.3665 9.71316 18.3665 10.8192C18.3665 10.9377 18.333 11.0562 18.2995 11.1747C18.0986 11.7672 17.8642 12.3598 17.6967 12.9523C17.5293 13.5053 17.6298 14.0583 17.9646 14.4929C18.0651 14.6509 18.199 14.7694 18.333 14.8879C18.4669 15.0064 18.6678 15.0854 18.8353 15.1249C19.1367 15.1644 19.3711 14.9669 19.572 14.7694C19.6724 14.6509 19.7729 14.5324 19.8734 14.4139C20.1078 14.0583 20.1747 13.5448 20.0743 13.0708C19.9403 12.3993 19.7059 11.8067 19.438 11.2142C19.3711 11.0957 19.3376 10.9377 19.3376 10.8192C19.3376 9.59466 19.3376 8.40961 19.3376 7.18506C19.3376 6.94805 19.1701 6.98755 19.1032 7.02705L18.5339 7.22456Z" fill="#7586CE"/>
</svg>
