<svg width="7" height="7" viewBox="0 0 7 7" fill="none" xmlns="http://www.w3.org/2000/svg">
<path d="M3.5 0.875C4.94375 0.875 6.125 2.05625 6.125 3.5C6.125 4.94375 4.94375 6.125 3.5 6.125C2.05625 6.125 0.875 4.94375 0.875 3.5C0.875 2.05625 2.05625 0.875 3.5 0.875ZM3.5 0.4375C1.81563 0.4375 0.4375 1.81563 0.4375 3.5C0.4375 5.18437 1.81563 6.5625 3.5 6.5625C5.18437 6.5625 6.5625 5.18437 6.5625 3.5C6.5625 1.81563 5.18437 0.4375 3.5 0.4375Z" fill="#464646"/>
<path d="M5.25 3.28125H3.71875V1.75H3.28125V3.28125H1.75V3.71875H3.28125V5.25H3.71875V3.71875H5.25V3.28125Z" fill="#464646"/>
</svg>
