<svg width="42" height="42" viewBox="0 0 42 42" fill="none" xmlns="http://www.w3.org/2000/svg">
<path d="M36.4219 32.4844H8.20312V6.89062C8.20312 6.71016 8.05547 6.5625 7.875 6.5625H5.57812C5.39766 6.5625 5.25 6.71016 5.25 6.89062V35.1094C5.25 35.2898 5.39766 35.4375 5.57812 35.4375H36.4219C36.6023 35.4375 36.75 35.2898 36.75 35.1094V32.8125C36.75 32.632 36.6023 32.4844 36.4219 32.4844ZM11.8125 29.2031H14.1094C14.2898 29.2031 14.4375 29.0555 14.4375 28.875V22.9688C14.4375 22.7883 14.2898 22.6406 14.1094 22.6406H11.8125C11.632 22.6406 11.4844 22.7883 11.4844 22.9688V28.875C11.4844 29.0555 11.632 29.2031 11.8125 29.2031ZM18.0469 29.2031H20.3438C20.5242 29.2031 20.6719 29.0555 20.6719 28.875V15.75C20.6719 15.5695 20.5242 15.4219 20.3438 15.4219H18.0469C17.8664 15.4219 17.7188 15.5695 17.7188 15.75V28.875C17.7188 29.0555 17.8664 29.2031 18.0469 29.2031ZM24.2812 29.2031H26.5781C26.7586 29.2031 26.9062 29.0555 26.9062 28.875V18.9492C26.9062 18.7688 26.7586 18.6211 26.5781 18.6211H24.2812C24.1008 18.6211 23.9531 18.7688 23.9531 18.9492V28.875C23.9531 29.0555 24.1008 29.2031 24.2812 29.2031ZM30.5156 29.2031H32.8125C32.993 29.2031 33.1406 29.0555 33.1406 28.875V12.4688C33.1406 12.2883 32.993 12.1406 32.8125 12.1406H30.5156C30.3352 12.1406 30.1875 12.2883 30.1875 12.4688V28.875C30.1875 29.0555 30.3352 29.2031 30.5156 29.2031Z" fill="#5D5D5A"/>
</svg>
