<svg width="10" height="12" viewBox="0 0 10 12" fill="none" xmlns="http://www.w3.org/2000/svg">
<path fill-rule="evenodd" clip-rule="evenodd" d="M8.85457 4.85396C8.80813 4.90052 8.75295 4.93747 8.69221 4.96267C8.63146 4.98788 8.56634 5.00085 8.50057 5.00085C8.4348 5.00085 8.36968 4.98788 8.30894 4.96267C8.24819 4.93747 8.19302 4.90052 8.14657 4.85396L4.50057 1.20696L0.854574 4.85396C0.760687 4.94785 0.633349 5.00059 0.500574 5.00059C0.367798 5.00059 0.24046 4.94785 0.146574 4.85396C0.0526871 4.76007 -5.753e-05 4.63273 -5.75184e-05 4.49996C-5.75068e-05 4.36718 0.0526871 4.23985 0.146574 4.14596L4.14657 0.145959C4.19302 0.0993962 4.24819 0.0624537 4.30894 0.0372472C4.36969 0.0120408 4.43481 -0.000934046 4.50057 -0.000934041C4.56634 -0.000934035 4.63146 0.0120408 4.69221 0.0372473C4.75295 0.0624537 4.80813 0.0993962 4.85457 0.145959L8.85457 4.14596C8.90114 4.19241 8.93808 4.24758 8.96328 4.30833C8.98849 4.36907 9.00147 4.43419 9.00147 4.49996C9.00147 4.56573 8.98849 4.63085 8.96328 4.69159C8.93808 4.75234 8.90113 4.80751 8.85457 4.85396ZM8.85457 7.14596C8.80813 7.0994 8.75295 7.06245 8.69221 7.03725C8.63146 7.01204 8.56634 6.99907 8.50057 6.99907C8.4348 6.99907 8.36968 7.01204 8.30894 7.03725C8.24819 7.06245 8.19302 7.0994 8.14657 7.14596L4.50057 10.793L0.854574 7.14596C0.760687 7.05207 0.633349 6.99933 0.500574 6.99933C0.367798 6.99933 0.24046 7.05207 0.146573 7.14596C0.0526869 7.23985 -5.77681e-05 7.36718 -5.77807e-05 7.49996C-5.77932e-05 7.63274 0.0526868 7.76007 0.146573 7.85396L4.14657 11.854C4.19302 11.9005 4.24819 11.9375 4.30894 11.9627C4.36968 11.9879 4.4348 12.0009 4.50057 12.0009C4.56634 12.0009 4.63146 11.9879 4.69221 11.9627C4.75295 11.9375 4.80813 11.9005 4.85457 11.854L8.85457 7.85396C8.90113 7.80751 8.93808 7.75234 8.96328 7.69159C8.98849 7.63085 9.00147 7.56573 9.00147 7.49996C9.00147 7.43419 8.98849 7.36907 8.96328 7.30833C8.93808 7.24758 8.90113 7.19241 8.85457 7.14596Z" fill="#464646"/>
</svg>
