<svg width="16" height="16" viewBox="0 0 16 16" fill="none" xmlns="http://www.w3.org/2000/svg">
<path d="M8.35392 12.146C8.4478 12.2399 8.50055 12.3672 8.50055 12.5C8.50055 12.6328 8.4478 12.7601 8.35392 12.854C8.26003 12.9479 8.13269 13.0006 7.99992 13.0006C7.86714 13.0006 7.7398 12.9479 7.64592 12.854L3.14592 8.35399C3.09935 8.30754 3.06241 8.25237 3.0372 8.19162C3.012 8.13088 2.99902 8.06576 2.99902 7.99999C2.99902 7.93422 3.012 7.8691 3.0372 7.80836C3.06241 7.74761 3.09935 7.69244 3.14592 7.64599L7.64592 3.14599C7.6924 3.0995 7.74759 3.06263 7.80833 3.03747C7.86907 3.01231 7.93417 2.99936 7.99992 2.99936C8.06566 2.99936 8.13076 3.01231 8.1915 3.03747C8.25224 3.06263 8.30743 3.0995 8.35392 3.14599C8.40041 3.19248 8.43728 3.24767 8.46244 3.30841C8.4876 3.36915 8.50055 3.43425 8.50055 3.49999C8.50055 3.56573 8.4876 3.63083 8.46244 3.69157C8.43728 3.75231 8.40041 3.8075 8.35392 3.85399L4.20692 7.99999L8.35392 12.146ZM12.3539 12.146C12.4478 12.2399 12.5005 12.3672 12.5005 12.5C12.5005 12.6328 12.4478 12.7601 12.3539 12.854C12.26 12.9479 12.1327 13.0006 11.9999 13.0006C11.8671 13.0006 11.7398 12.9479 11.6459 12.854L7.14592 8.35399C7.09935 8.30754 7.06241 8.25237 7.0372 8.19162C7.012 8.13088 6.99902 8.06576 6.99902 7.99999C6.99902 7.93422 7.012 7.8691 7.0372 7.80836C7.06241 7.74761 7.09935 7.69244 7.14592 7.64599L11.6459 3.14599C11.6924 3.0995 11.7476 3.06263 11.8083 3.03747C11.8691 3.01231 11.9342 2.99936 11.9999 2.99936C12.0657 2.99936 12.1308 3.01231 12.1915 3.03747C12.2522 3.06263 12.3074 3.0995 12.3539 3.14599C12.4004 3.19248 12.4373 3.24767 12.4624 3.30841C12.4876 3.36915 12.5005 3.43425 12.5005 3.49999C12.5005 3.56573 12.4876 3.63083 12.4624 3.69157C12.4373 3.75231 12.4004 3.8075 12.3539 3.85399L8.20692 7.99999L12.3539 12.146V12.146Z" fill="#464646"/>
</svg>
