<svg width="16" height="16" viewBox="0 0 16 16" fill="none" xmlns="http://www.w3.org/2000/svg">
<path d="M7.64608 3.85401C7.5522 3.76012 7.49945 3.63279 7.49945 3.50001C7.49945 3.36723 7.5522 3.2399 7.64608 3.14601C7.73997 3.05212 7.86731 2.99938 8.00008 2.99938C8.13286 2.99938 8.2602 3.05212 8.35408 3.14601L12.8541 7.64601C12.9006 7.69246 12.9376 7.74763 12.9628 7.80838C12.988 7.86912 13.001 7.93424 13.001 8.00001C13.001 8.06578 12.988 8.1309 12.9628 8.19164C12.9376 8.25239 12.9006 8.30756 12.8541 8.35401L8.35408 12.854C8.3076 12.9005 8.25241 12.9374 8.19167 12.9625C8.13093 12.9877 8.06583 13.0006 8.00008 13.0006C7.93434 13.0006 7.86924 12.9877 7.8085 12.9625C7.74776 12.9374 7.69257 12.9005 7.64608 12.854C7.59959 12.8075 7.56272 12.7523 7.53756 12.6916C7.5124 12.6309 7.49945 12.5658 7.49945 12.5C7.49945 12.4343 7.5124 12.3692 7.53756 12.3084C7.56272 12.2477 7.5996 12.1925 7.64608 12.146L11.7931 8.00001L7.64608 3.85401ZM3.64608 3.85401C3.5522 3.76012 3.49945 3.63279 3.49945 3.50001C3.49945 3.36723 3.5522 3.2399 3.64608 3.14601C3.73997 3.05212 3.86731 2.99938 4.00008 2.99938C4.13286 2.99938 4.2602 3.05212 4.35408 3.14601L8.85408 7.64601C8.90065 7.69246 8.93759 7.74763 8.9628 7.80838C8.988 7.86912 9.00098 7.93424 9.00098 8.00001C9.00098 8.06578 8.988 8.1309 8.9628 8.19164C8.93759 8.25239 8.90065 8.30756 8.85408 8.35401L4.35408 12.854C4.3076 12.9005 4.25241 12.9374 4.19167 12.9625C4.13093 12.9877 4.06583 13.0006 4.00008 13.0006C3.93434 13.0006 3.86924 12.9877 3.8085 12.9625C3.74776 12.9374 3.69257 12.9005 3.64608 12.854C3.59959 12.8075 3.56272 12.7523 3.53756 12.6916C3.5124 12.6309 3.49945 12.5658 3.49945 12.5C3.49945 12.4343 3.5124 12.3692 3.53756 12.3084C3.56272 12.2477 3.5996 12.1925 3.64608 12.146L7.79308 8.00001L3.64608 3.85401V3.85401Z" fill="#464646"/>
</svg>
