<svg width="18" height="18" viewBox="0 0 18 18" fill="none" xmlns="http://www.w3.org/2000/svg">
<path d="M3.43144 3.43125C3.6424 3.22035 3.9285 3.10187 4.22681 3.10187C4.52512 3.10187 4.81122 3.22035 5.02219 3.43125L9.00019 7.40925L12.9782 3.43125C13.1904 3.22632 13.4745 3.11293 13.7695 3.11549C14.0645 3.11806 14.3466 3.23637 14.5552 3.44496C14.7638 3.65354 14.8821 3.9357 14.8847 4.23068C14.8873 4.52565 14.7739 4.80983 14.5689 5.022L10.5909 9L14.5689 12.978C14.7739 13.1902 14.8873 13.4744 14.8847 13.7693C14.8821 14.0643 14.7638 14.3465 14.5552 14.555C14.3466 14.7636 14.0645 14.8819 13.7695 14.8845C13.4745 14.8871 13.1904 14.7737 12.9782 14.5688L9.00019 10.5908L5.02219 14.5688C4.81001 14.7737 4.52583 14.8871 4.23086 14.8845C3.93589 14.8819 3.65372 14.7636 3.44514 14.555C3.23656 14.3465 3.11824 14.0643 3.11568 13.7693C3.11311 13.4744 3.22651 13.1902 3.43144 12.978L7.40944 9L3.43144 5.022C3.22053 4.81103 3.10205 4.52494 3.10205 4.22663C3.10205 3.92832 3.22053 3.64222 3.43144 3.43125Z" fill="#464646"/>
</svg>
