<svg width="42" height="42" viewBox="0 0 42 42" fill="none" xmlns="http://www.w3.org/2000/svg">
<path d="M33.25 12.25H42V15.75H33.25V12.25ZM29.75 21H42V24.5H29.75V21ZM35 29.75H42V33.25H35V29.75ZM3.5 38.5C3.5 34.787 4.975 31.226 7.60051 28.6005C10.226 25.975 13.787 24.5 17.5 24.5C21.213 24.5 24.774 25.975 27.3995 28.6005C30.025 31.226 31.5 34.787 31.5 38.5H28C28 35.7152 26.8938 33.0445 24.9246 31.0754C22.9555 29.1062 20.2848 28 17.5 28C14.7152 28 12.0445 29.1062 10.0754 31.0754C8.10625 33.0445 7 35.7152 7 38.5H3.5ZM17.5 22.75C11.6987 22.75 7 18.0513 7 12.25C7 6.44875 11.6987 1.75 17.5 1.75C23.3013 1.75 28 6.44875 28 12.25C28 18.0513 23.3013 22.75 17.5 22.75ZM17.5 19.25C21.3675 19.25 24.5 16.1175 24.5 12.25C24.5 8.3825 21.3675 5.25 17.5 5.25C13.6325 5.25 10.5 8.3825 10.5 12.25C10.5 16.1175 13.6325 19.25 17.5 19.25Z" fill="#5D5D5A"/>
</svg>
