<svg width="21" height="20" viewBox="0 0 21 20" fill="none" xmlns="http://www.w3.org/2000/svg">
<g clip-path="url(#clip0_887_838)">
<path d="M14.1977 6.18717C16.2394 8.22894 16.2394 11.57 14.1977 13.6118C12.1559 15.6536 8.81481 15.6536 6.77304 13.6118C4.73127 11.57 4.73127 8.22894 6.77304 6.18717C8.81481 4.1454 12.1559 4.1454 14.1977 6.18717ZM14.8164 5.56846C12.4343 3.18639 8.53639 3.18639 6.15432 5.56846C3.77226 7.95052 3.77226 11.8484 6.15432 14.2305C8.53639 16.6126 12.4343 16.6126 14.8164 14.2305C17.1984 11.8484 17.1984 7.95052 14.8164 5.56846Z" fill="#22376F"/>
<path d="M13.2696 12.065L11.1041 9.89945L13.2696 7.73394L12.6509 7.11522L10.4854 9.28074L8.31984 7.11522L7.70112 7.73394L9.86663 9.89945L7.70112 12.065L8.31984 12.6837L10.4854 10.5182L12.6509 12.6837L13.2696 12.065Z" fill="#22376F"/>
</g>
<defs>
<clipPath id="clip0_887_838">
<rect width="14" height="14" fill="white" transform="translate(10.4854) rotate(45)"/>
</clipPath>
</defs>
</svg>
