<svg width="104" height="107" viewBox="0 0 104 107" fill="none" xmlns="http://www.w3.org/2000/svg">
<path d="M5.18555 103H7.2168V97.1406L11.5039 88.7617H9.21875L6.20117 95.0801L3.18359 88.7617H0.898438L5.18555 97.1406V103ZM20.498 103H22.6562V88.7617H20.498V94.8652H14.8633V88.7617H12.7051V103H14.8633V96.7793H20.498V103ZM25.2344 98.4785H31.25V96.4375H25.2344V98.4785ZM38.9551 103H40.9961V96.0762C40.9831 94.8392 40.5957 93.9668 39.834 93.459C39.0723 92.9642 38.0534 92.7233 36.7773 92.7363C35.2669 92.7103 34.1243 93.2051 33.3496 94.2207L34.9512 95.4414C35.127 95.1484 35.3678 94.9401 35.6738 94.8164C35.9668 94.7122 36.3672 94.6602 36.875 94.6602C38.2747 94.6341 38.9681 95.0671 38.9551 95.959V97.0234H36.1328C35.0521 97.0365 34.2318 97.3294 33.6719 97.9023C33.112 98.4622 32.832 99.1686 32.832 100.021C32.832 100.913 33.1543 101.646 33.7988 102.219C34.4108 102.805 35.2832 103.104 36.416 103.117C37.1061 103.117 37.6465 103.033 38.0371 102.863C38.4342 102.701 38.7272 102.447 38.916 102.102H38.9551V103ZM38.9551 99.4355C38.9551 100.197 38.7956 100.686 38.4766 100.9C38.125 101.115 37.5228 101.216 36.6699 101.203C35.9928 101.203 35.5078 101.07 35.2148 100.803C34.9089 100.562 34.7559 100.269 34.7559 99.9238C34.7428 99.1361 35.3288 98.7292 36.5137 98.7031H38.9551V99.4355ZM43.6328 103H45.6738V96.9648C45.6738 96.2552 45.8659 95.7148 46.25 95.3438C46.6276 94.9661 47.1094 94.7773 47.6953 94.7773C48.2812 94.7773 48.7598 94.9661 49.1309 95.3438C49.5085 95.7148 49.6973 96.2552 49.6973 96.9648V103H51.7383V96.2617C51.7057 95.1029 51.3444 94.224 50.6543 93.625C49.9577 93.0326 49.1895 92.7363 48.3496 92.7363C47.2624 92.7363 46.3835 93.1367 45.7129 93.9375H45.6738V92.8633H43.6328V103ZM54.6777 99.9043L53.252 101.301C54.5736 102.512 56.0612 103.117 57.7148 103.117C58.9323 103.104 59.9316 102.824 60.7129 102.277C61.5007 101.743 61.901 100.985 61.9141 100.002C61.9141 99.1621 61.696 98.4688 61.2598 97.9219C60.791 97.362 60.0293 97.043 58.9746 96.9648L57.2949 96.8379C56.8001 96.7858 56.4551 96.6654 56.2598 96.4766C56.0449 96.3073 55.944 96.1087 55.957 95.8809C55.957 95.5228 56.0905 95.2298 56.3574 95.002C56.6113 94.7741 57.0573 94.6602 57.6953 94.6602C58.2552 94.6602 58.75 94.7415 59.1797 94.9043C59.6159 95.0866 60.0293 95.3177 60.4199 95.5977L61.6797 94.123C61.1849 93.6934 60.625 93.3516 60 93.0977C59.6745 92.9805 59.3262 92.8893 58.9551 92.8242C58.584 92.7656 58.1641 92.7363 57.6953 92.7363C56.6146 92.7363 55.7227 92.9967 55.0195 93.5176C54.2969 94.0384 53.929 94.8197 53.916 95.8613C53.929 96.7272 54.209 97.401 54.7559 97.8828C55.2897 98.3776 55.9831 98.6641 56.8359 98.7422L58.6328 98.8984C59.0104 98.9115 59.3132 98.9928 59.541 99.1426C59.7624 99.2858 59.873 99.5397 59.873 99.9043C59.873 100.314 59.6875 100.633 59.3164 100.861C58.9453 101.089 58.4668 101.203 57.8809 101.203C56.5723 101.203 55.5046 100.77 54.6777 99.9043ZM63.4863 97.9219C63.4863 98.9896 63.5742 99.8034 63.75 100.363C63.9323 100.923 64.2122 101.408 64.5898 101.818C64.8698 102.137 65.2604 102.424 65.7617 102.678C66.2565 102.958 66.8913 103.104 67.666 103.117C68.4668 103.104 69.1146 102.958 69.6094 102.678C69.8763 102.561 70.0944 102.421 70.2637 102.258C70.4525 102.115 70.612 101.968 70.7422 101.818C71.1458 101.408 71.4323 100.923 71.6016 100.363C71.7643 99.8034 71.8457 98.9896 71.8457 97.9219C71.8457 96.8542 71.7643 96.0339 71.6016 95.4609C71.4323 94.901 71.1458 94.429 70.7422 94.0449C70.4753 93.7064 70.0977 93.4036 69.6094 93.1367C69.1146 92.8828 68.4668 92.7493 67.666 92.7363C66.8913 92.7493 66.2565 92.8828 65.7617 93.1367C65.2604 93.4036 64.8698 93.7064 64.5898 94.0449C64.2122 94.429 63.9323 94.901 63.75 95.4609C63.5742 96.0339 63.4863 96.8542 63.4863 97.9219ZM69.8047 97.9414C69.8047 98.6315 69.7721 99.1393 69.707 99.4648C69.6419 99.7969 69.5085 100.09 69.3066 100.344C69.1569 100.539 68.9355 100.712 68.6426 100.861C68.3626 101.005 68.0371 101.076 67.666 101.076C67.321 101.076 67.002 101.005 66.709 100.861C66.429 100.712 66.2012 100.539 66.0254 100.344C65.8496 100.09 65.7227 99.7969 65.6445 99.4648C65.5664 99.1393 65.5273 98.625 65.5273 97.9219C65.5273 97.2122 65.5664 96.6914 65.6445 96.3594C65.7227 96.0404 65.8496 95.7604 66.0254 95.5195C66.2012 95.2917 66.429 95.1126 66.709 94.9824C67.002 94.8457 67.321 94.7773 67.666 94.7773C68.0371 94.7773 68.3626 94.8457 68.6426 94.9824C68.9355 95.1126 69.1569 95.2917 69.3066 95.5195C69.5085 95.7604 69.6419 96.0404 69.707 96.3594C69.7721 96.6914 69.8047 97.2188 69.8047 97.9414ZM68.3789 91.2812H70.5469V89.123H68.3789V91.2812ZM64.8633 91.2812H67.0215V89.123H64.8633V91.2812ZM73.9844 103H76.0254V100.08L77.627 98.2637L80.3223 103H82.8809L78.9062 96.8184L82.4023 92.8633H79.9609L76.0645 97.6191H76.0254V88.7617H73.9844V103ZM89.6973 103H91.7383V96.0762C91.7253 94.8392 91.3379 93.9668 90.5762 93.459C89.8145 92.9642 88.7956 92.7233 87.5195 92.7363C86.0091 92.7103 84.8665 93.2051 84.0918 94.2207L85.6934 95.4414C85.8691 95.1484 86.11 94.9401 86.416 94.8164C86.709 94.7122 87.1094 94.6602 87.6172 94.6602C89.0169 94.6341 89.7103 95.0671 89.6973 95.959V97.0234H86.875C85.7943 97.0365 84.974 97.3294 84.4141 97.9023C83.8542 98.4622 83.5742 99.1686 83.5742 100.021C83.5742 100.913 83.8965 101.646 84.541 102.219C85.153 102.805 86.0254 103.104 87.1582 103.117C87.8483 103.117 88.3887 103.033 88.7793 102.863C89.1764 102.701 89.4694 102.447 89.6582 102.102H89.6973V103ZM89.6973 99.4355C89.6973 100.197 89.5378 100.686 89.2188 100.9C88.8672 101.115 88.265 101.216 87.4121 101.203C86.735 101.203 86.25 101.07 85.957 100.803C85.651 100.562 85.498 100.269 85.498 99.9238C85.485 99.1361 86.071 98.7292 87.2559 98.7031H89.6973V99.4355ZM94.375 103H96.416V96.9648C96.416 96.2552 96.6081 95.7148 96.9922 95.3438C97.3698 94.9661 97.8516 94.7773 98.4375 94.7773C99.0234 94.7773 99.502 94.9661 99.873 95.3438C100.251 95.7148 100.439 96.2552 100.439 96.9648V103H102.48V96.2617C102.448 95.1029 102.087 94.224 101.396 93.625C100.7 93.0326 99.9316 92.7363 99.0918 92.7363C98.0046 92.7363 97.1257 93.1367 96.4551 93.9375H96.416V92.8633H94.375V103Z" fill="#363636"/>
<path d="M45.7252 14.2842C47.6346 13.1876 49.7981 12.6106 52 12.6106C54.2019 12.6106 56.3653 13.1876 58.2748 14.2842L88.7458 31.7814C89.066 31.9654 89.332 32.2306 89.5169 32.5503C89.7019 32.87 89.7993 33.2327 89.7993 33.6021C89.7993 33.9714 89.7019 34.3342 89.5169 34.6538C89.332 34.9735 89.066 35.2387 88.7458 35.4228L77.2 42.0504V60.9C77.2004 61.1759 77.1465 61.4493 77.0413 61.7044C76.9361 61.9595 76.7816 62.1914 76.5868 62.3868L76.5784 62.391L76.57 62.4036L76.5406 62.4288L76.444 62.5212L76.108 62.832C75.6974 63.1922 75.2758 63.5395 74.8438 63.8736C73.3352 65.0319 71.7322 66.0617 70.0516 66.9522C64.493 69.9007 58.292 71.4301 52 71.4042C45.7079 71.4301 39.5069 69.9007 33.9484 66.9522C32.2692 66.0615 30.6675 65.0317 29.1604 63.8736C28.6065 63.4459 28.0712 62.9947 27.556 62.5212C27.3251 62.3176 27.1387 62.0685 27.0086 61.7895C26.8785 61.5105 26.8075 61.2077 26.8 60.9V42.0504L18.4 37.2288V56.7C18.4 57.2569 18.1787 57.7911 17.7849 58.1849C17.391 58.5787 16.8569 58.8 16.3 58.8C15.743 58.8 15.2089 58.5787 14.815 58.1849C14.4212 57.7911 14.2 57.2569 14.2 56.7V33.6C14.1997 33.2229 14.3009 32.8527 14.4931 32.5283C14.6852 32.2039 14.9612 31.9372 15.292 31.7562L45.7252 14.2842ZM58.2748 52.9158C56.3653 54.0123 54.2019 54.5893 52 54.5893C49.7981 54.5893 47.6346 54.0123 45.7252 52.9158L31 44.4612V59.9634C32.5293 61.2187 34.1796 62.3189 35.9266 63.2478C39.6226 65.2218 45.0616 67.2 52 67.2C57.6012 67.2284 63.1227 65.8722 68.0734 63.252C69.8207 62.3205 71.4711 61.2175 73 59.9592V44.4612L58.2748 52.9116V52.9158ZM56.1832 17.9298C54.9102 17.1987 53.4679 16.8141 52 16.8141C50.532 16.8141 49.0897 17.1987 47.8168 17.9298L20.5168 33.6L47.8168 49.2744C49.0897 50.0054 50.532 50.3901 52 50.3901C53.4679 50.3901 54.9102 50.0054 56.1832 49.2744L83.4832 33.6L56.1832 17.9256V17.9298Z" fill="#699BF7"/>
</svg>
