<svg width="104" height="79" viewBox="0 0 104 79" fill="none" xmlns="http://www.w3.org/2000/svg">
<path d="M5.18555 75H7.2168V69.1406L11.5039 60.7617H9.21875L6.20117 67.0801L3.18359 60.7617H0.898438L5.18555 69.1406V75ZM20.498 75H22.6562V60.7617H20.498V66.8652H14.8633V60.7617H12.7051V75H14.8633V68.7793H20.498V75ZM25.2344 70.4785H31.25V68.4375H25.2344V70.4785ZM38.9551 75H40.9961V68.0762C40.9831 66.8392 40.5957 65.9668 39.834 65.459C39.0723 64.9642 38.0534 64.7233 36.7773 64.7363C35.2669 64.7103 34.1243 65.2051 33.3496 66.2207L34.9512 67.4414C35.127 67.1484 35.3678 66.9401 35.6738 66.8164C35.9668 66.7122 36.3672 66.6602 36.875 66.6602C38.2747 66.6341 38.9681 67.0671 38.9551 67.959V69.0234H36.1328C35.0521 69.0365 34.2318 69.3294 33.6719 69.9023C33.112 70.4622 32.832 71.1686 32.832 72.0215C32.832 72.9134 33.1543 73.6458 33.7988 74.2188C34.4108 74.8047 35.2832 75.1042 36.416 75.1172C37.1061 75.1172 37.6465 75.0326 38.0371 74.8633C38.4342 74.7005 38.7272 74.4466 38.916 74.1016H38.9551V75ZM38.9551 71.4355C38.9551 72.1973 38.7956 72.6855 38.4766 72.9004C38.125 73.1152 37.5228 73.2161 36.6699 73.2031C35.9928 73.2031 35.5078 73.0697 35.2148 72.8027C34.9089 72.5618 34.7559 72.2689 34.7559 71.9238C34.7428 71.1361 35.3288 70.7292 36.5137 70.7031H38.9551V71.4355ZM43.6328 75H45.6738V68.9648C45.6738 68.2552 45.8659 67.7148 46.25 67.3438C46.6276 66.9661 47.1094 66.7773 47.6953 66.7773C48.2812 66.7773 48.7598 66.9661 49.1309 67.3438C49.5085 67.7148 49.6973 68.2552 49.6973 68.9648V75H51.7383V68.2617C51.7057 67.1029 51.3444 66.224 50.6543 65.625C49.9577 65.0326 49.1895 64.7363 48.3496 64.7363C47.2624 64.7363 46.3835 65.1367 45.7129 65.9375H45.6738V64.8633H43.6328V75ZM54.6777 71.9043L53.252 73.3008C54.5736 74.5117 56.0612 75.1172 57.7148 75.1172C58.9323 75.1042 59.9316 74.8242 60.7129 74.2773C61.5007 73.7435 61.901 72.985 61.9141 72.002C61.9141 71.1621 61.696 70.4688 61.2598 69.9219C60.791 69.362 60.0293 69.043 58.9746 68.9648L57.2949 68.8379C56.8001 68.7858 56.4551 68.6654 56.2598 68.4766C56.0449 68.3073 55.944 68.1087 55.957 67.8809C55.957 67.5228 56.0905 67.2298 56.3574 67.002C56.6113 66.7741 57.0573 66.6602 57.6953 66.6602C58.2552 66.6602 58.75 66.7415 59.1797 66.9043C59.6159 67.0866 60.0293 67.3177 60.4199 67.5977L61.6797 66.123C61.1849 65.6934 60.625 65.3516 60 65.0977C59.6745 64.9805 59.3262 64.8893 58.9551 64.8242C58.584 64.7656 58.1641 64.7363 57.6953 64.7363C56.6146 64.7363 55.7227 64.9967 55.0195 65.5176C54.2969 66.0384 53.929 66.8197 53.916 67.8613C53.929 68.7272 54.209 69.401 54.7559 69.8828C55.2897 70.3776 55.9831 70.6641 56.8359 70.7422L58.6328 70.8984C59.0104 70.9115 59.3132 70.9928 59.541 71.1426C59.7624 71.2858 59.873 71.5397 59.873 71.9043C59.873 72.3145 59.6875 72.6335 59.3164 72.8613C58.9453 73.0892 58.4668 73.2031 57.8809 73.2031C56.5723 73.2031 55.5046 72.7702 54.6777 71.9043ZM63.4863 69.9219C63.4863 70.9896 63.5742 71.8034 63.75 72.3633C63.9323 72.9232 64.2122 73.4082 64.5898 73.8184C64.8698 74.1374 65.2604 74.4238 65.7617 74.6777C66.2565 74.9577 66.8913 75.1042 67.666 75.1172C68.4668 75.1042 69.1146 74.9577 69.6094 74.6777C69.8763 74.5605 70.0944 74.4206 70.2637 74.2578C70.4525 74.1146 70.612 73.9681 70.7422 73.8184C71.1458 73.4082 71.4323 72.9232 71.6016 72.3633C71.7643 71.8034 71.8457 70.9896 71.8457 69.9219C71.8457 68.8542 71.7643 68.0339 71.6016 67.4609C71.4323 66.901 71.1458 66.429 70.7422 66.0449C70.4753 65.7064 70.0977 65.4036 69.6094 65.1367C69.1146 64.8828 68.4668 64.7493 67.666 64.7363C66.8913 64.7493 66.2565 64.8828 65.7617 65.1367C65.2604 65.4036 64.8698 65.7064 64.5898 66.0449C64.2122 66.429 63.9323 66.901 63.75 67.4609C63.5742 68.0339 63.4863 68.8542 63.4863 69.9219ZM69.8047 69.9414C69.8047 70.6315 69.7721 71.1393 69.707 71.4648C69.6419 71.7969 69.5085 72.0898 69.3066 72.3438C69.1569 72.5391 68.9355 72.7116 68.6426 72.8613C68.3626 73.0046 68.0371 73.0762 67.666 73.0762C67.321 73.0762 67.002 73.0046 66.709 72.8613C66.429 72.7116 66.2012 72.5391 66.0254 72.3438C65.8496 72.0898 65.7227 71.7969 65.6445 71.4648C65.5664 71.1393 65.5273 70.625 65.5273 69.9219C65.5273 69.2122 65.5664 68.6914 65.6445 68.3594C65.7227 68.0404 65.8496 67.7604 66.0254 67.5195C66.2012 67.2917 66.429 67.1126 66.709 66.9824C67.002 66.8457 67.321 66.7773 67.666 66.7773C68.0371 66.7773 68.3626 66.8457 68.6426 66.9824C68.9355 67.1126 69.1569 67.2917 69.3066 67.5195C69.5085 67.7604 69.6419 68.0404 69.707 68.3594C69.7721 68.6914 69.8047 69.2188 69.8047 69.9414ZM68.3789 63.2812H70.5469V61.123H68.3789V63.2812ZM64.8633 63.2812H67.0215V61.123H64.8633V63.2812ZM73.9844 75H76.0254V72.0801L77.627 70.2637L80.3223 75H82.8809L78.9062 68.8184L82.4023 64.8633H79.9609L76.0645 69.6191H76.0254V60.7617H73.9844V75ZM89.6973 75H91.7383V68.0762C91.7253 66.8392 91.3379 65.9668 90.5762 65.459C89.8145 64.9642 88.7956 64.7233 87.5195 64.7363C86.0091 64.7103 84.8665 65.2051 84.0918 66.2207L85.6934 67.4414C85.8691 67.1484 86.11 66.9401 86.416 66.8164C86.709 66.7122 87.1094 66.6602 87.6172 66.6602C89.0169 66.6341 89.7103 67.0671 89.6973 67.959V69.0234H86.875C85.7943 69.0365 84.974 69.3294 84.4141 69.9023C83.8542 70.4622 83.5742 71.1686 83.5742 72.0215C83.5742 72.9134 83.8965 73.6458 84.541 74.2188C85.153 74.8047 86.0254 75.1042 87.1582 75.1172C87.8483 75.1172 88.3887 75.0326 88.7793 74.8633C89.1764 74.7005 89.4694 74.4466 89.6582 74.1016H89.6973V75ZM89.6973 71.4355C89.6973 72.1973 89.5378 72.6855 89.2188 72.9004C88.8672 73.1152 88.265 73.2161 87.4121 73.2031C86.735 73.2031 86.25 73.0697 85.957 72.8027C85.651 72.5618 85.498 72.2689 85.498 71.9238C85.485 71.1361 86.071 70.7292 87.2559 70.7031H89.6973V71.4355ZM94.375 75H96.416V68.9648C96.416 68.2552 96.6081 67.7148 96.9922 67.3438C97.3698 66.9661 97.8516 66.7773 98.4375 66.7773C99.0234 66.7773 99.502 66.9661 99.873 67.3438C100.251 67.7148 100.439 68.2552 100.439 68.9648V75H102.48V68.2617C102.448 67.1029 102.087 66.224 101.396 65.625C100.7 65.0326 99.9316 64.7363 99.0918 64.7363C98.0046 64.7363 97.1257 65.1367 96.4551 65.9375H96.416V64.8633H94.375V75Z" fill="white"/>
<path d="M47.8169 9.52282C49.0898 8.79179 50.5321 8.4071 52.0001 8.4071C53.468 8.4071 54.9103 8.79179 56.1833 9.52282L76.4973 21.1876C76.7107 21.3103 76.8881 21.4871 77.0114 21.7002C77.1347 21.9133 77.1996 22.1552 77.1996 22.4014C77.1996 22.6476 77.1347 22.8895 77.0114 23.1026C76.8881 23.3157 76.7107 23.4925 76.4973 23.6152L68.8001 28.0336V40.6C68.8004 40.784 68.7645 40.9662 68.6943 41.1363C68.6242 41.3064 68.5212 41.461 68.3913 41.5912L68.3857 41.594L68.3801 41.6024L68.3605 41.6192L68.2961 41.6808L68.0721 41.888C67.7984 42.1282 67.5173 42.3597 67.2293 42.5824C66.2235 43.3546 65.1549 44.0412 64.0345 44.6348C60.3288 46.6005 56.1948 47.6201 52.0001 47.6028C47.8053 47.6201 43.6713 46.6005 39.9657 44.6348C38.8462 44.0411 37.7784 43.3545 36.7737 42.5824C36.4044 42.2973 36.0475 41.9965 35.7041 41.6808C35.5501 41.5451 35.4259 41.379 35.3392 41.1931C35.2524 41.0071 35.2051 40.8052 35.2001 40.6V28.0336L29.6 24.8192V37.8C29.6 38.1713 29.4526 38.5274 29.19 38.79C28.9274 39.0525 28.5714 39.2 28.2 39.2C27.8287 39.2 27.4727 39.0525 27.2101 38.79C26.9475 38.5274 26.8 38.1713 26.8 37.8V22.4C26.7999 22.1486 26.8674 21.9019 26.9955 21.6856C27.1236 21.4693 27.3075 21.2915 27.528 21.1708L47.8169 9.52282ZM56.1833 35.2772C54.9103 36.0083 53.468 36.3929 52.0001 36.3929C50.5321 36.3929 49.0898 36.0083 47.8169 35.2772L38.0001 29.6408V39.9756C39.0196 40.8125 40.1198 41.546 41.2845 42.1652C43.7485 43.4812 47.3745 44.8 52.0001 44.8C55.7342 44.819 59.4152 43.9149 62.7157 42.168C63.8806 41.5471 64.9808 40.8117 66.0001 39.9728V29.6408L56.1833 35.2744V35.2772ZM54.7889 11.9532C53.9402 11.4659 52.9787 11.2094 52.0001 11.2094C51.0214 11.2094 50.0599 11.4659 49.2113 11.9532L31.0113 22.4L49.2113 32.8496C50.0599 33.337 51.0214 33.5934 52.0001 33.5934C52.9787 33.5934 53.9402 33.337 54.7889 32.8496L72.9889 22.4L54.7889 11.9504V11.9532Z" fill="#7586CE"/>
</svg>
