<svg width="100" height="79" viewBox="0 0 100 79" fill="none" xmlns="http://www.w3.org/2000/svg">
<path d="M5.22656 75H7.25781V69.1406L11.5449 60.7617H9.25977L6.24219 67.0801L3.22461 60.7617H0.939453L5.22656 69.1406V75ZM20.5391 75H22.6973V60.7617H20.5391V66.8652H14.9043V60.7617H12.7461V75H14.9043V68.7793H20.5391V75ZM32.6777 62.8027H35.793C36.3789 62.7897 36.8932 62.9232 37.3359 63.2031C37.6289 63.3724 37.8568 63.6035 38.0195 63.8965C38.1758 64.222 38.2539 64.6224 38.2539 65.0977C38.2539 65.6706 38.0618 66.1914 37.6777 66.6602C37.2741 67.1419 36.6719 67.3893 35.8711 67.4023H32.6777V62.8027ZM30.5195 75H32.6777V69.4434H35.959C37.4238 69.4173 38.5371 68.9486 39.2988 68.0371C40.041 67.1712 40.4121 66.2109 40.4121 65.1562C40.4121 64.375 40.2656 63.6979 39.9727 63.125C39.6927 62.5326 39.3281 62.0768 38.8789 61.7578C38.3451 61.3346 37.8177 61.0547 37.2969 60.918C36.776 60.8138 36.2357 60.7617 35.6758 60.7617H30.5195V75ZM41.3203 69.9219C41.3203 70.9896 41.4082 71.8034 41.584 72.3633C41.7663 72.9232 42.0462 73.4082 42.4238 73.8184C42.7038 74.1374 43.0944 74.4238 43.5957 74.6777C44.0905 74.9577 44.7253 75.1042 45.5 75.1172C46.3008 75.1042 46.9486 74.9577 47.4434 74.6777C47.7103 74.5605 47.9284 74.4206 48.0977 74.2578C48.2865 74.1146 48.446 73.9681 48.5762 73.8184C48.9798 73.4082 49.2663 72.9232 49.4355 72.3633C49.5983 71.8034 49.6797 70.9896 49.6797 69.9219C49.6797 68.8542 49.5983 68.0339 49.4355 67.4609C49.2663 66.901 48.9798 66.429 48.5762 66.0449C48.3092 65.7064 47.9316 65.4036 47.4434 65.1367C46.9486 64.8828 46.3008 64.7493 45.5 64.7363C44.7253 64.7493 44.0905 64.8828 43.5957 65.1367C43.0944 65.4036 42.7038 65.7064 42.4238 66.0449C42.0462 66.429 41.7663 66.901 41.584 67.4609C41.4082 68.0339 41.3203 68.8542 41.3203 69.9219ZM47.6387 69.9414C47.6387 70.6315 47.6061 71.1393 47.541 71.4648C47.4759 71.7969 47.3424 72.0898 47.1406 72.3438C46.9909 72.5391 46.7695 72.7116 46.4766 72.8613C46.1966 73.0046 45.8711 73.0762 45.5 73.0762C45.1549 73.0762 44.8359 73.0046 44.543 72.8613C44.263 72.7116 44.0352 72.5391 43.8594 72.3438C43.6836 72.0898 43.5566 71.7969 43.4785 71.4648C43.4004 71.1393 43.3613 70.625 43.3613 69.9219C43.3613 69.2122 43.4004 68.6914 43.4785 68.3594C43.5566 68.0404 43.6836 67.7604 43.8594 67.5195C44.0352 67.2917 44.263 67.1126 44.543 66.9824C44.8359 66.8457 45.1549 66.7773 45.5 66.7773C45.8711 66.7773 46.1966 66.8457 46.4766 66.9824C46.7695 67.1126 46.9909 67.2917 47.1406 67.5195C47.3424 67.7604 47.4759 68.0404 47.541 68.3594C47.6061 68.6914 47.6387 69.2188 47.6387 69.9414ZM51.8184 75H53.8594V68.8965C53.8724 68.1543 54.0872 67.6172 54.5039 67.2852C54.875 66.9466 55.321 66.7773 55.8418 66.7773C56.304 66.7773 56.75 66.9466 57.1797 67.2852L58.6641 65.5176C58.0586 65.0098 57.349 64.7493 56.5352 64.7363C55.4479 64.7363 54.569 65.1367 53.8984 65.9375H53.8594V64.8633H51.8184V75ZM59.7285 64.8633H58.7129V66.416H59.7285V72.5C59.7285 73.3008 59.9629 73.9128 60.4316 74.3359C60.8874 74.7786 61.4733 75 62.1895 75H63.2539V73.0762H62.4922C61.9974 73.0892 61.7565 72.8385 61.7695 72.3242V66.416H63.2539V64.8633H61.7695V61.7773H59.7285V64.8633ZM70.5 75H72.541V68.0762C72.528 66.8392 72.1406 65.9668 71.3789 65.459C70.6172 64.9642 69.5983 64.7233 68.3223 64.7363C66.8118 64.7103 65.6693 65.2051 64.8945 66.2207L66.4961 67.4414C66.6719 67.1484 66.9128 66.9401 67.2188 66.8164C67.5117 66.7122 67.9121 66.6602 68.4199 66.6602C69.8197 66.6341 70.513 67.0671 70.5 67.959V69.0234H67.6777C66.597 69.0365 65.7767 69.3294 65.2168 69.9023C64.6569 70.4622 64.377 71.1686 64.377 72.0215C64.377 72.9134 64.6992 73.6458 65.3438 74.2188C65.9557 74.8047 66.8281 75.1042 67.9609 75.1172C68.651 75.1172 69.1914 75.0326 69.582 74.8633C69.9792 74.7005 70.2721 74.4466 70.4609 74.1016H70.5V75ZM70.5 71.4355C70.5 72.1973 70.3405 72.6855 70.0215 72.9004C69.6699 73.1152 69.0677 73.2161 68.2148 73.2031C67.5378 73.2031 67.0527 73.0697 66.7598 72.8027C66.4538 72.5618 66.3008 72.2689 66.3008 71.9238C66.2878 71.1361 66.8737 70.7292 68.0586 70.7031H70.5V71.4355ZM75.1777 72.5391C75.1777 73.431 75.4316 74.0658 75.9395 74.4434C76.4212 74.8145 77.0332 75 77.7754 75H78.6836V73.0762H77.9805C77.4727 73.0762 77.2188 72.8451 77.2188 72.3828V60.7617H75.1777V72.5391ZM88.1953 70.7031V69.0234C88.1823 67.6888 87.7689 66.6406 86.9551 65.8789C86.1543 65.1302 85.1745 64.7493 84.0156 64.7363C83.5339 64.7363 83.0456 64.8242 82.5508 65C82.0495 65.1758 81.597 65.4622 81.1934 65.8594C80.7962 66.25 80.4707 66.7839 80.2168 67.4609C79.9629 68.125 79.8359 68.9583 79.8359 69.9609C79.8359 71.0026 79.9824 71.849 80.2754 72.5C80.5423 73.1771 80.8906 73.7044 81.3203 74.082C81.5417 74.2643 81.7793 74.4173 82.0332 74.541C82.2741 74.6842 82.5215 74.7982 82.7754 74.8828C83.2832 75.0391 83.804 75.1172 84.3379 75.1172C85.7376 75.1302 86.9551 74.5833 87.9902 73.4766L86.5156 72.2168C85.8646 72.8743 85.1257 73.2031 84.2988 73.2031C83.5892 73.2031 83.0163 72.9883 82.5801 72.5586C82.1113 72.1354 81.877 71.5169 81.877 70.7031H88.1953ZM81.877 69.0234C81.916 68.2357 82.1276 67.64 82.5117 67.2363C82.9023 66.8522 83.4036 66.6602 84.0156 66.6602C84.6276 66.6602 85.1289 66.8522 85.5195 67.2363C85.9167 67.64 86.1283 68.2357 86.1543 69.0234H81.877ZM90.334 75H92.375V68.9648C92.375 68.2552 92.5671 67.7148 92.9512 67.3438C93.3288 66.9661 93.8105 66.7773 94.3965 66.7773C94.9824 66.7773 95.4609 66.9661 95.832 67.3438C96.2096 67.7148 96.3984 68.2552 96.3984 68.9648V75H98.4395V68.2617C98.4069 67.1029 98.0456 66.224 97.3555 65.625C96.6589 65.0326 95.8906 64.7363 95.0508 64.7363C93.9635 64.7363 93.0846 65.1367 92.4141 65.9375H92.375V64.8633H90.334V75Z" fill="white"/>
<path d="M44.8169 9.5227C46.0898 8.79166 47.5321 8.40698 49.0001 8.40698C50.468 8.40698 51.9103 8.79166 53.1833 9.5227L73.4973 21.1875C73.7107 21.3102 73.8881 21.487 74.0114 21.7001C74.1347 21.9132 74.1996 22.1551 74.1996 22.4013C74.1996 22.6475 74.1347 22.8894 74.0114 23.1025C73.8881 23.3156 73.7107 23.4924 73.4973 23.6151L65.8001 28.0335V40.5999C65.8004 40.7839 65.7645 40.9661 65.6943 41.1362C65.6242 41.3063 65.5212 41.4608 65.3913 41.5911L65.3857 41.5939L65.3801 41.6023L65.3605 41.6191L65.2961 41.6807L65.0721 41.8879C64.7984 42.128 64.5173 42.3596 64.2293 42.5823C63.2235 43.3545 62.1549 44.041 61.0345 44.6347C57.3288 46.6004 53.1948 47.62 49.0001 47.6027C44.8053 47.62 40.6713 46.6004 36.9657 44.6347C35.8462 44.0409 34.7784 43.3544 33.7737 42.5823C33.4044 42.2972 33.0475 41.9964 32.7041 41.6807C32.5501 41.545 32.4259 41.3789 32.3392 41.1929C32.2524 41.007 32.2051 40.8051 32.2001 40.5999V28.0335L26.6 24.8191V37.7999C26.6 38.1712 26.4526 38.5273 26.19 38.7899C25.9274 39.0524 25.5714 39.1999 25.2 39.1999C24.8287 39.1999 24.4727 39.0524 24.2101 38.7899C23.9475 38.5273 23.8 38.1712 23.8 37.7999V22.3999C23.7999 22.1485 23.8674 21.9017 23.9955 21.6855C24.1236 21.4692 24.3075 21.2914 24.528 21.1707L44.8169 9.5227ZM53.1833 35.2771C51.9103 36.0081 50.468 36.3928 49.0001 36.3928C47.5321 36.3928 46.0898 36.0081 44.8169 35.2771L35.0001 29.6407V39.9755C36.0196 40.8124 37.1198 41.5458 38.2845 42.1651C40.7485 43.4811 44.3745 44.7999 49.0001 44.7999C52.7342 44.8189 56.4152 43.9148 59.7157 42.1679C60.8806 41.5469 61.9808 40.8116 63.0001 39.9727V29.6407L53.1833 35.2743V35.2771ZM51.7889 11.9531C50.9402 11.4657 49.9787 11.2093 49.0001 11.2093C48.0214 11.2093 47.0599 11.4657 46.2113 11.9531L28.0113 22.3999L46.2113 32.8495C47.0599 33.3369 48.0214 33.5933 49.0001 33.5933C49.9787 33.5933 50.9402 33.3369 51.7889 32.8495L69.9889 22.3999L51.7889 11.9503V11.9531Z" fill="#7586CE"/>
</svg>
