<svg width="36" height="36" viewBox="0 0 36 36" fill="none" xmlns="http://www.w3.org/2000/svg">
<path fill-rule="evenodd" clip-rule="evenodd" d="M2.1048 17.9999C2.1048 13.7843 3.77947 9.74126 6.76039 6.76033C9.74132 3.7794 13.7843 2.10474 18 2.10474C22.2157 2.10474 26.2587 3.7794 29.2396 6.76033C32.2205 9.74126 33.8952 13.7843 33.8952 17.9999C33.8952 22.2156 32.2205 26.2586 29.2396 29.2395C26.2587 32.2205 22.2157 33.8951 18 33.8951C13.7843 33.8951 9.74132 32.2205 6.76039 29.2395C3.77947 26.2586 2.1048 22.2156 2.1048 17.9999V17.9999ZM18 4.38474C15.361 4.38483 12.7789 5.15185 10.5678 6.59251C8.35675 8.03316 6.612 10.0853 5.54584 12.4994C4.47969 14.9134 4.13807 17.5853 4.56255 20.1899C4.98703 22.7946 6.15932 25.2197 7.9368 27.1703C9.0159 25.4801 10.5036 24.0892 12.2625 23.1261C14.0214 22.1629 15.9947 21.6587 18 21.6599C20.0054 21.6585 21.9787 22.1626 23.7376 23.1258C25.4966 24.0889 26.9843 25.48 28.0632 27.1703C29.8407 25.2197 31.013 22.7946 31.4374 20.1899C31.8619 17.5853 31.5203 14.9134 30.4542 12.4994C29.388 10.0853 27.6432 8.03316 25.4322 6.59251C23.2211 5.15185 20.639 4.38483 18 4.38474V4.38474ZM26.3568 28.7495C25.5075 27.2858 24.2884 26.071 22.8217 25.2269C21.3551 24.3828 19.6923 23.939 18 23.9399C16.3077 23.939 14.6449 24.3828 13.1782 25.2269C11.7116 26.071 10.4925 27.2858 9.6432 28.7495C12.0306 30.6111 14.9726 31.62 18 31.6151C21.1488 31.6151 24.048 30.5447 26.3568 28.7495ZM12.36 15.6119C12.36 14.1161 12.9542 12.6816 14.0119 11.6239C15.0696 10.5661 16.5042 9.97194 18 9.97194C19.4958 9.97194 20.9304 10.5661 21.9881 11.6239C23.0458 12.6816 23.64 14.1161 23.64 15.6119C23.64 17.1078 23.0458 18.5423 21.9881 19.6C20.9304 20.6577 19.4958 21.2519 18 21.2519C16.5042 21.2519 15.0696 20.6577 14.0119 19.6C12.9542 18.5423 12.36 17.1078 12.36 15.6119V15.6119ZM18 12.2519C17.5588 12.2519 17.1218 12.3388 16.7142 12.5077C16.3065 12.6766 15.9361 12.9241 15.6241 13.2361C15.3121 13.5481 15.0646 13.9185 14.8958 14.3261C14.7269 14.7338 14.64 15.1707 14.64 15.6119C14.64 16.0532 14.7269 16.4901 14.8958 16.8978C15.0646 17.3054 15.3121 17.6758 15.6241 17.9878C15.9361 18.2998 16.3065 18.5473 16.7142 18.7162C17.1218 18.885 17.5588 18.9719 18 18.9719C18.8911 18.9719 19.7458 18.6179 20.3759 17.9878C21.006 17.3577 21.36 16.5031 21.36 15.6119C21.36 14.7208 21.006 13.8662 20.3759 13.2361C19.7458 12.6059 18.8911 12.2519 18 12.2519V12.2519Z" fill="#5D5D5A"/>
</svg>
